<svg width="220" height="215" viewBox="0 0 220 215" fill="none" xmlns="http://www.w3.org/2000/svg">
<path d="M109.528 214.568C169.675 214.568 218.433 211.738 218.433 208.247C218.433 204.755 169.675 201.925 109.528 201.925C49.3818 201.925 0.623466 204.755 0.623466 208.247C0.623466 211.738 49.3818 214.568 109.528 214.568Z" fill="#F5F5F5"/>
<path d="M62.6446 39.4297L62.2907 38.9941C64.7585 37.0037 67.3269 35.1398 69.9858 33.4097L70.2947 33.8788C67.6508 35.5977 65.0974 37.4504 62.6446 39.4297V39.4297Z" fill="#263238"/>
<path d="M58.4993 42.9534L58.1174 42.5402C58.8701 41.8645 59.6452 41.1888 60.4147 40.5354L60.7798 40.9654C60.0103 41.6132 59.2464 42.2833 58.4993 42.9534Z" fill="#263238"/>
<path d="M120.707 111.107C147.597 87.6862 155.941 53.4312 139.345 34.5961C122.749 15.761 87.4964 19.4783 60.6069 42.8989C33.7174 66.3195 25.3731 100.574 41.9694 119.41C58.5657 138.245 93.8179 134.527 120.707 111.107Z" fill="#263238"/>
<path d="M116.725 106.587C140.051 86.2698 147.29 56.5541 132.893 40.2152C118.497 23.8763 87.9159 27.1014 64.5894 47.4186C41.2629 67.7358 34.024 97.4515 48.4208 113.79C62.8176 130.129 93.3984 126.904 116.725 106.587Z" fill="white"/>
<path d="M102.311 33.8173C77.9954 35.7775 53.0679 56.7135 46.631 80.5366L134.686 73.4499C141.123 49.6045 126.626 31.8628 102.311 33.8173Z" fill="#00A2A5"/>
<path opacity="0.7" d="M46.6197 80.5366L90.6501 76.9905L67.7671 48.9567C57.6905 57.4227 49.8494 68.6139 46.6197 80.5366Z" fill="white"/>
<path opacity="0.4" d="M102.311 33.8174C90.1558 34.8002 77.8437 40.5187 67.7671 48.9679L90.6614 76.9905L102.311 33.8174V33.8174Z" fill="white"/>
<path opacity="0.1" d="M102.311 33.8174L90.6614 76.9905L130.03 43.9587C124.171 36.7883 114.471 32.8401 102.311 33.8174Z" fill="white"/>
<path d="M101.291 89.0709C110.808 80.781 113.763 68.6577 107.89 61.9926C102.018 55.3276 89.5412 56.6448 80.0235 64.9347C70.5058 73.2246 67.551 85.3479 73.4238 92.013C79.2965 98.678 91.773 97.3607 101.291 89.0709Z" fill="white"/>
<path d="M96.8641 84.0471C102.417 79.2101 104.14 72.1352 100.712 68.2447C97.2844 64.3543 90.0035 65.1216 84.4502 69.9585C78.8968 74.7955 77.1739 81.8704 80.6019 85.7609C84.0299 89.6513 91.3107 88.884 96.8641 84.0471Z" fill="#263238"/>
<path d="M123.615 53.8989C113.14 57.8318 103.207 63.0669 94.0539 69.4794L98.1935 76.8509C107.554 70.2304 116.088 62.5255 123.615 53.8989V53.8989Z" fill="#263238"/>
<path d="M51.6749 97.0162C51.5442 97.0228 51.4137 96.9993 51.2937 96.9475C51.1737 96.8956 51.0673 96.8168 50.983 96.7173C50.8987 96.6178 50.8387 96.5003 50.8077 96.3739C50.7767 96.2474 50.7755 96.1156 50.8043 95.9887C50.8695 95.6745 51.0327 95.3888 51.2707 95.1723C51.5087 94.9557 51.8094 94.8193 52.1299 94.7824L100.541 90.9683C100.678 90.9475 100.818 90.9603 100.949 91.0056C101.079 91.0508 101.197 91.1272 101.291 91.2279C101.385 91.3287 101.453 91.4509 101.489 91.5837C101.525 91.7166 101.527 91.8562 101.496 91.9902C101.433 92.3037 101.271 92.5889 101.033 92.8047C100.796 93.0205 100.496 93.1558 100.176 93.1909L51.8041 97.0106L51.6749 97.0162Z" fill="#00A2A5"/>
<path d="M93.5484 101.595C93.4174 101.603 93.2863 101.58 93.1657 101.529C93.0451 101.478 92.9382 101.399 92.8537 101.299C92.7691 101.199 92.7092 101.081 92.6786 100.954C92.6481 100.827 92.6478 100.695 92.6778 100.568C92.7417 100.254 92.9046 99.9678 93.143 99.7519C93.3813 99.536 93.6827 99.4013 94.0034 99.3672L109.731 98.1219C109.868 98.1001 110.008 98.1121 110.14 98.1569C110.271 98.2017 110.389 98.2779 110.484 98.3789C110.579 98.4798 110.648 98.6023 110.684 98.7357C110.72 98.8691 110.722 99.0093 110.691 99.1439C110.627 99.4584 110.464 99.7445 110.225 99.9612C109.987 100.178 109.686 100.314 109.365 100.35L93.6383 101.59L93.5484 101.595Z" fill="#00A2A5"/>
<path d="M13.5647 121.599C13.434 121.605 13.3035 121.582 13.1835 121.53C13.0634 121.478 12.9571 121.399 12.8728 121.3C12.7885 121.2 12.7285 121.083 12.6975 120.956C12.6664 120.83 12.6653 120.698 12.694 120.571C12.7608 120.254 12.9275 119.967 13.17 119.751C13.4125 119.535 13.718 119.402 14.0421 119.371L29.7692 118.125C29.9061 118.105 30.046 118.118 30.1767 118.163C30.3075 118.208 30.4252 118.285 30.5197 118.385C30.6143 118.486 30.6828 118.608 30.7193 118.74C30.7559 118.873 30.7595 119.013 30.7297 119.147C30.6656 119.461 30.5034 119.746 30.2664 119.963C30.0294 120.18 29.7295 120.316 29.4098 120.353L13.6826 121.593L13.5647 121.599Z" fill="#00A2A5"/>
<path d="M27.573 112.457C27.4425 112.464 27.3121 112.441 27.1922 112.389C27.0723 112.337 26.9662 112.258 26.8823 112.158C26.7984 112.059 26.7389 111.941 26.7087 111.814C26.6785 111.688 26.6782 111.556 26.7081 111.43C26.7724 111.116 26.9348 110.832 27.1719 110.616C27.409 110.4 27.7087 110.265 28.028 110.229L75.2094 106.504C75.3464 106.484 75.4862 106.497 75.617 106.542C75.7477 106.587 75.8654 106.663 75.9599 106.764C76.0545 106.865 76.123 106.986 76.1595 107.119C76.1961 107.252 76.1997 107.392 76.1699 107.526C76.1047 107.84 75.9415 108.126 75.7035 108.342C75.4655 108.559 75.1648 108.695 74.8443 108.732L27.6629 112.451L27.573 112.457Z" fill="#00A2A5"/>
<path d="M128.845 162.605L130.844 166.62L140.735 163.085L138.736 159.07L128.845 162.605Z" fill="#FF8B7B"/>
<path d="M80.7533 195.626L83.7583 198.971L91.3972 190.343L87.6957 187.785L80.7533 195.626Z" fill="#FF8B7B"/>
<path d="M84.4435 198.619L82.399 193.543C82.3666 193.462 82.3068 193.395 82.2298 193.353C82.1529 193.311 82.0638 193.297 81.9777 193.314L77.9842 194.152C77.8858 194.173 77.7934 194.216 77.7135 194.277C77.6337 194.338 77.5684 194.416 77.5222 194.505C77.4761 194.594 77.4503 194.692 77.4467 194.792C77.443 194.892 77.4616 194.992 77.5011 195.084C78.1864 196.704 78.7593 197.876 79.585 199.909C80.0961 201.177 81.5003 205.047 82.208 206.795C82.9157 208.543 84.7075 208.006 84.5783 207.219C83.9773 203.706 83.9605 200.864 84.4604 199.429C84.5568 199.166 84.5508 198.877 84.4435 198.619Z" fill="#263238"/>
<path d="M131.299 166.364L129.114 161.974C129.074 161.896 129.008 161.833 128.928 161.795C128.848 161.758 128.757 161.748 128.67 161.768L124.683 162.745C124.585 162.767 124.494 162.811 124.417 162.873C124.339 162.936 124.277 163.015 124.235 163.105C124.194 163.195 124.173 163.294 124.176 163.393C124.178 163.492 124.204 163.59 124.25 163.677C125.064 165.247 126.295 167.486 127.289 169.474C128.446 171.803 128.603 171.875 129.962 174.6C130.782 176.248 132.687 175.885 132.496 175.12C131.619 171.635 131.131 171.032 131.468 167.486C131.517 167.104 131.459 166.715 131.299 166.364V166.364Z" fill="#263238"/>
<path d="M170.19 90.4154C169.982 91.8674 169.758 93.431 169.584 94.9444C169.409 96.4577 169.235 97.999 169.106 99.5236C168.808 102.503 168.718 105.5 168.836 108.492C168.836 108.855 168.87 109.218 168.915 109.559L169.016 110.553C169.015 110.847 169.107 111.135 169.279 111.374C169.452 111.614 169.696 111.794 169.977 111.887C170.486 112.119 171.024 112.281 171.578 112.368C172.961 112.572 174.362 112.624 175.756 112.524C176.492 112.474 177.245 112.418 178.003 112.329C178.761 112.239 179.531 112.122 180.25 112.016L181.34 115.205C180.563 115.568 179.768 115.89 178.958 116.171C178.158 116.467 177.342 116.72 176.515 116.93C175.666 117.154 174.805 117.327 173.937 117.45C173.019 117.589 172.09 117.649 171.162 117.628C170.119 117.616 169.083 117.46 168.084 117.165C166.865 116.797 165.758 116.135 164.86 115.238C163.925 114.265 163.279 113.053 162.995 111.737C162.956 111.564 162.939 111.469 162.922 111.357L162.866 111.033L162.748 110.374C162.664 109.939 162.607 109.509 162.557 109.079C162.192 105.74 162.12 102.377 162.343 99.0266C162.45 97.3848 162.568 95.7541 162.77 94.1346C162.973 92.5151 163.169 90.9236 163.484 89.2427L170.19 90.4154Z" fill="#FF8B7B"/>
<path d="M162.995 86.3723C160.041 89.494 161.231 97.3736 161.231 97.3736L169.533 98.658C169.533 98.658 171.46 94.1905 170.735 89.5833C169.848 83.9877 166.225 82.9379 162.995 86.3723Z" fill="#00A2A5"/>
<path opacity="0.2" d="M165.697 89.829C164.326 88.0755 162.888 87.45 162.124 87.5952C160.288 91.1749 161.22 97.3512 161.22 97.3512L167.101 98.3006C167.775 96.4856 167.859 92.571 165.697 89.829Z" fill="black"/>
<path d="M179.143 112.502L183.957 109.363L185.024 114.222C185.024 114.222 182.03 117.237 179.537 115.11L179.143 112.502Z" fill="#FF8B7B"/>
<path d="M186.917 108.313L187.473 112.513L185.024 114.222L183.951 109.363L186.917 108.313Z" fill="#FF8B7B"/>
<path opacity="0.2" d="M140.73 163.091L135.635 164.911L133.636 160.891L138.73 159.07L140.73 163.091Z" fill="black"/>
<path opacity="0.2" d="M87.6957 187.785L91.3972 190.343L87.8136 194.386L84.1121 191.823L87.6957 187.785Z" fill="black"/>
<path d="M145.892 75.6C142.477 92.9731 133.383 108.649 132.114 112.111C135.371 113.468 147.667 118.561 154.368 121.336C166.865 102.846 168.78 89.4661 169.067 86.2271C169.087 85.9956 169.046 85.763 168.947 85.5523C168.848 85.3416 168.696 85.1603 168.505 85.0265C167.972 84.6411 167.118 84.038 166.079 83.3511C165.517 82.9937 164.916 82.6196 164.27 82.2343C163.916 82.0276 163.551 81.8266 163.18 81.6311C160.103 80.1491 156.943 78.8439 153.716 77.722C153.109 77.5043 152.486 77.292 151.874 77.1022C151.261 76.9123 150.75 76.7615 150.217 76.6163C147.824 75.9797 145.892 75.6 145.892 75.6Z" fill="#00A2A5"/>
<path d="M159.271 100.372L160.501 100.685C159.69 101.465 158.701 102.04 157.62 102.36C156.384 102.728 155.069 102.748 153.823 102.416C152.72 102.192 151.71 101.643 150.924 100.842C150.593 100.471 150.342 100.037 150.186 99.5667C150.029 99.0961 149.971 98.5988 150.014 98.1051C150.096 96.9318 150.43 95.7894 150.992 94.7545C151.645 93.49 152.524 92.3545 153.587 91.4038C154.544 90.5112 155.698 89.8534 156.957 89.4828C158.089 89.1603 159.286 89.141 160.428 89.427C161.298 89.6133 162.085 90.0711 162.675 90.7337C163.22 91.3891 163.496 92.2245 163.45 93.0736C163.407 94.0513 163.14 95.0064 162.669 95.8658C162.076 97.0118 161.215 97.9998 160.158 98.7474C158.794 99.7246 157.519 100.06 156.339 99.7637C156.215 99.7461 156.096 99.7039 155.989 99.6397C155.882 99.5754 155.789 99.4903 155.716 99.3896C155.629 99.1803 155.629 98.9455 155.716 98.7362C155.133 99.1076 154.429 99.2416 153.75 99.1103C153.458 99.0522 153.189 98.9101 152.977 98.7016C152.766 98.4931 152.62 98.2275 152.559 97.9376C152.427 97.1745 152.581 96.3897 152.991 95.7318C153.531 94.6792 154.299 93.7582 155.238 93.0345C156.399 92.1298 157.461 91.7966 158.423 92.0349C158.727 92.0853 159.001 92.2453 159.194 92.4843C159.387 92.7233 159.484 93.0246 159.468 93.3305L159.996 92.6212L161.518 93.0066L158.148 97.6137C158.007 97.7919 157.878 97.9784 157.76 98.1722C157.711 98.2549 157.688 98.35 157.693 98.4458C157.698 98.4754 157.713 98.5027 157.733 98.5245C157.754 98.5463 157.781 98.5617 157.811 98.5687C158.13 98.5889 158.449 98.5151 158.726 98.3564C159.352 98.0903 159.923 97.7117 160.411 97.2396C160.933 96.7568 161.37 96.1905 161.703 95.5642C161.973 95.1122 162.148 94.6106 162.219 94.0896C162.289 93.5686 162.253 93.0388 162.113 92.5319C161.81 91.616 161.046 91.0055 159.821 90.7002C158.824 90.4377 157.771 90.4648 156.788 90.7784C155.761 91.1181 154.828 91.6918 154.064 92.4537C153.253 93.2314 152.574 94.1348 152.053 95.1286C151.592 95.9708 151.343 96.9118 151.329 97.8706C151.317 98.2644 151.385 98.6565 151.53 99.0232C151.675 99.3899 151.893 99.7235 152.171 100.004C152.803 100.586 153.578 100.99 154.418 101.177C155.267 101.403 156.155 101.452 157.024 101.322C157.835 101.176 158.603 100.851 159.271 100.372ZM154.463 96.0445C154.212 96.4415 154.088 96.9051 154.109 97.3736C154.123 97.5149 154.182 97.6482 154.277 97.7544C154.372 97.8607 154.498 97.9346 154.637 97.9655C154.873 98.0206 155.12 98.009 155.35 97.932C155.582 97.8573 155.801 97.7501 156.002 97.6137C156.435 97.3143 156.823 96.9552 157.153 96.5471C157.534 96.1151 157.864 95.641 158.136 95.1342C158.366 94.7633 158.471 94.3288 158.434 93.8945C158.417 93.7478 158.353 93.6104 158.252 93.502C158.151 93.3936 158.018 93.3199 157.872 93.2914C157.475 93.2189 157.064 93.2965 156.721 93.5092C156.222 93.7949 155.783 94.1742 155.429 94.626C155.058 95.0639 154.734 95.5394 154.463 96.0445V96.0445Z" fill="white"/>
<path d="M159.119 67.6366C158.451 70.9091 156.721 76.7057 153.744 77.8393C154.71 80.1624 156.081 82.949 159.647 84.5741C163.214 86.1992 163.613 83.4572 163.203 81.7819C160.147 79.5481 161.287 77.1022 162.86 74.9969L159.119 67.6366Z" fill="#FF8B7B"/>
<path opacity="0.2" d="M160.642 70.6298L162.855 74.9689C162.479 75.4558 162.148 75.9754 161.866 76.5214C160.647 75.7954 159.456 73.6398 159.883 72.2326C160.037 71.6572 160.294 71.1142 160.642 70.6298V70.6298Z" fill="black"/>
<path d="M168.101 67.7594C171.622 68.0163 174.74 59.2823 169.6 58.2659C166.135 57.579 166.169 59.6397 165.803 61.8958C165.438 64.1519 165.871 67.5975 168.101 67.7594Z" fill="#263238"/>
<path d="M159.518 63.3366C158.614 67.6924 157.861 70.1942 159.434 72.9864C161.804 77.1803 167.657 76.6554 169.859 72.657C171.836 69.055 172.987 62.538 169.235 59.6899C168.411 59.0588 167.438 58.6476 166.408 58.4955C165.379 58.3433 164.328 58.4552 163.354 58.8205C162.381 59.1859 161.517 59.7925 160.846 60.5829C160.175 61.3733 159.718 62.3212 159.518 63.3366V63.3366Z" fill="#FF8B7B"/>
<path d="M158.771 66.4527C162.293 66.7096 164.652 58.7239 159.513 57.7019C156.047 57.015 155.755 59.031 155.811 61.1866C155.867 63.4762 156.536 66.2684 158.771 66.4527Z" fill="#263238"/>
<path d="M161.613 60.3433C163.989 61.4881 175.442 63.9397 174.785 59.0422C174.128 54.1446 168.011 51.8718 168.011 51.8718C168.011 51.8718 171.572 55.7529 168.634 54.8203C165.697 53.8877 164.854 53.2064 161.332 52.5866C161.332 52.5866 164.792 55.4402 160.771 54.636C158.438 54.1359 156.001 54.5224 153.941 55.7194C154.962 56.4026 155.778 57.3491 156.301 58.4577C156.823 59.5663 157.032 60.7953 156.906 62.0131C156.631 66.3187 161.613 60.3433 161.613 60.3433Z" fill="#263238"/>
<path d="M156.71 66.6593C156.864 67.6727 157.413 68.5851 158.237 69.2002C159.316 69.9876 160.299 69.083 160.372 67.7762C160.434 66.5979 159.951 64.7662 158.687 64.5037C157.423 64.2413 156.541 65.3972 156.71 66.6593Z" fill="#FF8B7B"/>
<path d="M139.814 115.305L135.13 130.305L159.243 145.383C155.081 152.285 133.933 159.154 133.933 159.154L137.304 165.956C137.304 165.956 166.753 163.722 172.723 150.777C178.469 138.346 154.356 121.336 154.356 121.336L139.814 115.305Z" fill="#263238"/>
<path opacity="0.2" d="M142.943 135.191L138.736 132.572L143.915 125.089C143.915 125.089 144.061 131.087 142.943 135.191Z" fill="black"/>
<path opacity="0.2" d="M142.943 135.191L138.736 132.572L143.915 125.089C143.915 125.089 144.061 131.087 142.943 135.191Z" fill="black"/>
<path d="M149.144 119.175C149.144 119.175 129.698 151.33 121.672 161.762C112.882 173.188 90.1221 194.71 90.1221 194.71L83.3426 190.019C83.3426 190.019 103.002 168.474 110.41 156.552C118.863 142.97 132.114 112.1 132.114 112.1L149.144 119.175Z" fill="#263238"/>
<path d="M90.8299 195.425L82.8483 189.907L84.5053 187.534L93.5372 193.548L90.8299 195.425Z" fill="#00A2A5"/>
<path d="M137.584 166.888L133.546 158.785L136.18 157.49L140.831 166.481L137.584 166.888Z" fill="#00A2A5"/>
<path d="M165.736 66.3019C165.64 66.6481 165.736 66.9832 165.977 67.0446C166.219 67.106 166.472 66.8771 166.567 66.5253C166.663 66.1734 166.567 65.844 166.32 65.7825C166.073 65.7211 165.831 65.9557 165.736 66.3019Z" fill="#263238"/>
<path d="M169.701 67.3853C169.606 67.7371 169.701 68.0666 169.943 68.128C170.185 68.1894 170.437 67.9605 170.533 67.6086C170.628 67.2568 170.533 66.9273 170.291 66.8659C170.05 66.8045 169.797 67.0279 169.701 67.3853Z" fill="#263238"/>
<path d="M168.393 67.2065C168.52 68.3869 168.809 69.5443 169.252 70.6465C168.965 70.7514 168.659 70.7927 168.354 70.7676C168.05 70.7425 167.754 70.6517 167.488 70.5014L168.393 67.2065Z" fill="#FF5652"/>
<path d="M165.758 71.0375C165.378 70.8864 165.032 70.6599 164.743 70.3719C164.453 70.084 164.225 69.7404 164.073 69.3622C164.066 69.3348 164.07 69.3057 164.083 69.2809C164.097 69.256 164.119 69.2371 164.146 69.2282C164.173 69.2207 164.202 69.2235 164.227 69.2359C164.252 69.2482 164.271 69.2694 164.281 69.2952C164.454 69.7083 164.721 70.0752 165.063 70.3663C165.404 70.6573 165.81 70.8643 166.247 70.9705C166.261 70.973 166.275 70.9785 166.286 70.9865C166.298 70.9946 166.308 71.005 166.315 71.0171C166.323 71.0293 166.328 71.0428 166.329 71.0569C166.331 71.071 166.33 71.0853 166.326 71.0989C166.322 71.1126 166.315 71.1254 166.306 71.1365C166.297 71.1476 166.286 71.1568 166.274 71.1636C166.261 71.1704 166.247 71.1746 166.233 71.1759C166.219 71.1773 166.205 71.1758 166.191 71.1715C166.044 71.1372 165.899 71.0924 165.758 71.0375V71.0375Z" fill="#263238"/>
<path d="M164.86 64.6991C164.827 64.6832 164.798 64.6604 164.775 64.6321C164.758 64.6104 164.745 64.5853 164.737 64.5584C164.73 64.5316 164.728 64.5034 164.732 64.4758C164.735 64.4481 164.745 64.4215 164.759 64.3975C164.773 64.3735 164.792 64.3526 164.815 64.3361C165.078 64.1235 165.389 63.9766 165.721 63.9076C166.054 63.8386 166.397 63.8496 166.725 63.9397C166.778 63.9598 166.821 63.9995 166.845 64.0506C166.869 64.1016 166.872 64.1599 166.854 64.2133C166.835 64.2655 166.796 64.3083 166.745 64.3323C166.695 64.3563 166.637 64.3597 166.584 64.3417C166.324 64.2727 166.051 64.2666 165.788 64.3239C165.526 64.3812 165.28 64.5003 165.073 64.6712C165.043 64.6933 165.007 64.7074 164.97 64.7122C164.933 64.7171 164.895 64.7126 164.86 64.6991Z" fill="#263238"/>
<path d="M171.78 66.4806C171.748 66.467 171.719 66.4455 171.698 66.4182C171.676 66.3908 171.662 66.3585 171.656 66.3242C171.615 66.0605 171.511 65.8103 171.352 65.5947C171.194 65.379 170.986 65.2041 170.746 65.0845C170.718 65.0755 170.692 65.0607 170.67 65.0413C170.648 65.0218 170.631 64.9981 170.618 64.9715C170.606 64.9449 170.599 64.9161 170.599 64.8869C170.598 64.8576 170.604 64.8285 170.615 64.8015C170.626 64.7745 170.643 64.7501 170.664 64.7298C170.686 64.7095 170.711 64.6938 170.738 64.6837C170.766 64.6735 170.795 64.6692 170.825 64.6709C170.854 64.6726 170.883 64.6803 170.909 64.6936C171.214 64.8407 171.479 65.0585 171.681 65.3287C171.883 65.5989 172.017 65.9135 172.072 66.2461C172.077 66.2732 172.078 66.3013 172.072 66.3285C172.067 66.3557 172.056 66.3816 172.04 66.4045C172.024 66.4274 172.004 66.447 171.981 66.462C171.957 66.477 171.931 66.4871 171.903 66.4918C171.862 66.5023 171.818 66.4983 171.78 66.4806V66.4806Z" fill="#263238"/>
<path d="M84.2806 200.333C84.1386 199.961 84.0406 199.573 83.9885 199.177C83.9851 199.156 83.9881 199.134 83.997 199.114C84.006 199.094 84.0206 199.077 84.0391 199.066C84.0554 199.054 84.0751 199.048 84.0953 199.048C84.1154 199.048 84.1351 199.054 84.1514 199.066C84.3087 199.172 85.6624 200.149 85.6174 200.713C85.6112 200.776 85.5889 200.836 85.5525 200.888C85.5161 200.94 85.4669 200.982 85.4096 201.009C85.3175 201.06 85.2142 201.086 85.1091 201.086C85.004 201.086 84.9007 201.06 84.8086 201.009C84.561 200.85 84.375 200.611 84.2806 200.333ZM84.2525 199.401C84.393 200.171 84.6401 200.702 84.9209 200.847C84.9849 200.878 85.0559 200.892 85.1269 200.887C85.1979 200.882 85.2664 200.859 85.3254 200.819C85.404 200.786 85.4152 200.741 85.4152 200.708C85.4321 200.417 84.7693 199.808 84.2525 199.401Z" fill="#00A2A5"/>
<path d="M83.9942 199.177C83.9888 199.164 83.9863 199.149 83.9868 199.134C83.9873 199.119 83.9908 199.104 83.9971 199.091C84.0034 199.077 84.0123 199.065 84.0234 199.055C84.0345 199.045 84.0475 199.037 84.0616 199.032C84.1121 199.032 85.3366 198.586 85.9264 198.893C85.9984 198.929 86.0618 198.98 86.1122 199.043C86.1626 199.105 86.1988 199.178 86.2184 199.256C86.2485 199.331 86.2521 199.415 86.2287 199.493C86.2053 199.571 86.1562 199.639 86.0893 199.686C85.668 199.976 84.4042 199.546 84.0223 199.222C84.0098 199.209 84.0002 199.194 83.9942 199.177V199.177ZM85.9994 199.272C85.965 199.193 85.9033 199.127 85.8253 199.088C85.3324 198.962 84.8122 198.991 84.3368 199.172C84.8311 199.457 85.7242 199.68 85.9769 199.507C85.9769 199.507 86.0499 199.457 86.0162 199.323L85.9994 199.272Z" fill="#00A2A5"/>
<path d="M130.94 167.034C130.937 167.014 130.939 166.994 130.947 166.977C130.955 166.959 130.968 166.944 130.985 166.933C131.003 166.921 131.024 166.915 131.046 166.915C131.068 166.915 131.09 166.921 131.108 166.933C131.294 167.073 132.917 168.279 132.889 168.904C132.886 168.962 132.869 169.018 132.838 169.067C132.808 169.116 132.765 169.156 132.715 169.184V169.184C132.634 169.24 132.539 169.275 132.441 169.284C132.342 169.293 132.243 169.275 132.153 169.234C131.541 168.988 131.125 167.76 130.934 167.05L130.94 167.034ZM132.675 168.848C132.63 168.497 131.855 167.787 131.232 167.296C131.529 168.257 131.895 168.899 132.237 169.038C132.296 169.063 132.36 169.073 132.424 169.067C132.488 169.061 132.549 169.04 132.602 169.005C132.624 168.996 132.643 168.98 132.656 168.96C132.669 168.94 132.676 168.917 132.675 168.893V168.848Z" fill="#00A2A5"/>
<path d="M146.066 83.2003L144.291 82.022C143.679 81.6255 143.055 81.2402 142.432 80.8549C141.179 80.0898 139.91 79.3638 138.629 78.6658C137.349 77.9677 136.051 77.3311 134.742 76.7615C134.091 76.4655 133.434 76.203 132.776 75.9517L131.793 75.6055L131.546 75.5218L131.423 75.4771C131.423 75.4771 131.383 75.4771 131.333 75.438C130.861 75.3982 130.386 75.4264 129.923 75.5218C129.277 75.6397 128.639 75.7982 128.013 75.9964C126.634 76.4331 125.279 76.94 123.952 77.5154C121.228 78.6825 118.453 80.0116 115.757 81.3686L113.853 78.5764C116.29 76.5137 118.888 74.6464 121.621 72.992C123.037 72.1352 124.506 71.3685 126.019 70.6968C126.84 70.3431 127.682 70.041 128.541 69.7921C129.574 69.4771 130.651 69.3281 131.732 69.351C132.086 69.3692 132.439 69.4121 132.788 69.4794L133.052 69.5408L133.209 69.5799L133.518 69.6581L134.754 69.9764C135.562 70.2166 136.377 70.4567 137.152 70.7527C138.71 71.3058 140.234 71.9472 141.718 72.6737C143.196 73.3773 144.628 74.1592 146.027 74.9856C146.717 75.4101 147.408 75.8401 148.088 76.2868C148.768 76.7336 149.419 77.1803 150.149 77.722L146.066 83.2003Z" fill="#FF8B7B"/>
<path d="M152.778 78.4592C151.784 76.0132 142.387 72.6682 142.387 72.6682L139.348 80.5533C139.348 80.5533 142.634 82.7145 145.358 84.334C150.531 87.4333 154.721 83.2729 152.778 78.4592Z" fill="#00A2A5"/>
<path d="M116.662 80.1904L114.758 84.2949L111.854 80.5533C111.854 80.5533 114.044 76.89 115.606 78.3196L116.662 80.1904Z" fill="#FF8B7B"/>
<path d="M110.742 85.5848L109.27 82.3012L111.854 80.5533L114.758 84.2948L110.742 85.5848Z" fill="#FF8B7B"/>
</svg>
