<svg width="170" height="212" viewBox="0 0 170 212" fill="none" xmlns="http://www.w3.org/2000/svg">
<path d="M147.452 79.9077L150.286 84.2422L154.501 83.3686L151.32 77.9805L147.452 79.9077Z" fill="#9F5B53"/>
<path d="M155.488 42.7578C156.088 43.4847 156.588 44.1315 157.101 44.8384C157.615 45.5452 158.108 46.2254 158.595 46.9323C159.569 48.3393 160.496 49.7864 161.362 51.2734C162.229 52.7605 163.07 54.2809 163.803 55.8747C164.197 56.6549 164.53 57.4817 164.89 58.2886C165.25 59.0955 165.557 59.9424 165.817 60.816L166.03 61.4828L166.137 61.8096C166.197 62.003 166.257 62.2097 166.297 62.4031C166.444 63.0952 166.493 63.8045 166.444 64.5103C166.356 65.616 166.116 66.7043 165.73 67.7445C165.078 69.4779 164.241 71.1367 163.236 72.6925C161.363 75.5806 159.191 78.2629 156.755 80.6946L153.84 78.414C155.443 75.6794 156.907 72.8662 158.228 69.9851C158.835 68.6698 159.319 67.3014 159.675 65.8973C159.808 65.3701 159.869 64.8272 159.855 64.2836C159.855 64.1685 159.83 64.0549 159.782 63.9502L159.675 63.6967L159.455 63.1899C158.207 60.3846 156.735 57.6841 155.054 55.1145C154.214 53.7808 153.327 52.4937 152.433 51.1934C151.54 49.8931 150.566 48.5927 149.686 47.4124L155.488 42.7578Z" fill="#9F5B53"/>
<path d="M153.84 39.4768C158.435 40.5304 163.703 53.0471 163.703 53.0471L154.507 59.3688C152.212 56.0791 150.174 52.6168 148.412 49.0127C145.685 43.2845 149.172 38.4032 153.84 39.4768Z" fill="white"/>
<path opacity="0.8" d="M153.84 39.4768C158.435 40.5304 163.703 53.0471 163.703 53.0471L154.507 59.3688C152.212 56.0791 150.174 52.6168 148.412 49.0127C145.685 43.2845 149.172 38.4032 153.84 39.4768Z" fill="white"/>
<path d="M150.573 47.459L154.934 59.0688L154.501 59.3688C154.501 59.3688 152.614 56.7015 150.573 53.1472V47.459Z" fill="white"/>
<path opacity="0.6" d="M150.573 47.459L154.934 59.0688L154.501 59.3688C154.501 59.3688 152.614 56.7015 150.573 53.1472V47.459Z" fill="white"/>
<path d="M138.93 206.682H134.028L133.542 195.339H138.443L138.93 206.682Z" fill="#9F5B53"/>
<path d="M168.344 206.682H163.443L160.982 195.339H165.877L168.344 206.682Z" fill="#9F5B53"/>
<path d="M133.542 195.345L133.795 201.187H138.696L138.443 195.345H133.542Z" fill="#8A4743"/>
<path d="M165.884 195.345H160.982L162.249 201.187H167.151L165.884 195.345Z" fill="#8A4743"/>
<path d="M135.422 82.0748C135.422 82.0748 140.984 119.511 144.031 133.535C147.365 148.873 159.969 200.06 159.969 200.06H168.944C168.944 200.06 160.636 150.133 158.728 134.902C156.661 118.398 152.333 82.0481 152.333 82.0481L135.422 82.0748Z" fill="white"/>
<path opacity="0.5" d="M135.422 82.0748C135.422 82.0748 140.984 119.511 144.031 133.535C147.365 148.873 159.969 200.06 159.969 200.06H168.944C168.944 200.06 160.636 150.133 158.728 134.902C156.661 118.398 152.333 82.0481 152.333 82.0481L135.422 82.0748Z" fill="black"/>
<path opacity="0.4" d="M138.936 95.4119C145.365 96.6723 144.685 120.645 143.911 132.975C142.057 124.26 139.343 107.489 137.489 95.5853C137.938 95.3643 138.448 95.3032 138.936 95.4119V95.4119Z" fill="black"/>
<path d="M126.126 82.075C126.126 82.075 125.459 118.698 125.986 133.642C126.54 149.18 131.988 200.06 131.988 200.06H140.283C140.283 200.06 140.59 150.087 140.95 134.829C141.35 118.191 143.358 82.075 143.358 82.075H126.126Z" fill="white"/>
<path opacity="0.5" d="M126.126 82.075C126.126 82.075 125.459 118.698 125.986 133.642C126.54 149.18 131.988 200.06 131.988 200.06H140.283C140.283 200.06 140.59 150.087 140.95 134.829C141.35 118.191 143.358 82.075 143.358 82.075H126.126Z" fill="black"/>
<path d="M154.901 77.3672L151.32 77.9807L154.501 83.3688C154.501 83.3688 156.995 82.1685 157.448 79.8412L154.901 77.3672Z" fill="#9F5B53"/>
<path d="M131.234 21.2721C131.234 21.6656 131.028 21.9856 130.768 21.9856C130.507 21.9856 130.301 21.6656 130.301 21.2721C130.301 20.8787 130.507 20.5586 130.768 20.5586C131.028 20.5586 131.234 20.872 131.234 21.2721Z" fill="#263238"/>
<path d="M131.061 21.9856C130.589 23.1933 129.954 24.3308 129.174 25.3665C129.444 25.5595 129.752 25.6911 130.078 25.7521C130.404 25.8132 130.74 25.8022 131.061 25.7199V21.9856Z" fill="#892B29"/>
<path d="M132.635 19.0847C132.586 19.0853 132.539 19.0688 132.501 19.038C132.27 18.8598 131.999 18.7396 131.711 18.6874C131.423 18.6352 131.127 18.6525 130.848 18.7379C130.82 18.7486 130.79 18.7536 130.76 18.7527C130.73 18.7517 130.7 18.7449 130.673 18.7325C130.646 18.7201 130.621 18.7024 130.601 18.6804C130.581 18.6585 130.565 18.6327 130.554 18.6046C130.542 18.5766 130.536 18.5465 130.536 18.5162C130.536 18.4858 130.542 18.4557 130.554 18.4277C130.566 18.3997 130.583 18.3744 130.605 18.3532C130.627 18.332 130.653 18.3155 130.681 18.3045C131.032 18.1912 131.405 18.1648 131.769 18.2275C132.132 18.2903 132.475 18.4402 132.768 18.6646C132.794 18.6812 132.816 18.703 132.832 18.7285C132.849 18.7541 132.86 18.7828 132.865 18.8129C132.87 18.843 132.869 18.8738 132.862 18.9034C132.854 18.933 132.84 18.9606 132.822 18.9847C132.802 19.0162 132.774 19.0419 132.742 19.0595C132.709 19.077 132.672 19.0857 132.635 19.0847V19.0847Z" fill="#263238"/>
<path d="M143.991 25.8267C143.284 29.4143 142.584 35.9761 145.091 38.3701C145.091 38.3701 144.111 42.0044 137.449 42.0044C130.114 42.0044 133.955 38.3701 133.955 38.3701C137.956 37.4165 137.85 34.449 137.149 31.6682L143.991 25.8267Z" fill="#9F5B53"/>
<path d="M146.052 39.6169C146.578 38.4699 147.152 37.1495 145.958 36.7361C144.625 36.2826 137.443 35.8225 134.962 36.6694C134.635 36.7601 134.329 36.9148 134.062 37.1246C133.795 37.3344 133.572 37.595 133.406 37.8915C133.241 38.188 133.136 38.5143 133.097 38.8517C133.058 39.1891 133.087 39.5307 133.182 39.8569L146.052 39.6169Z" fill="white"/>
<path d="M161.476 206.922C161.269 206.949 161.058 206.935 160.857 206.88C160.655 206.825 160.467 206.731 160.302 206.602C160.243 206.521 160.211 206.425 160.211 206.325C160.211 206.225 160.243 206.128 160.302 206.048C160.339 205.979 160.39 205.919 160.452 205.872C160.514 205.825 160.586 205.792 160.662 205.775C161.382 205.615 162.729 206.535 162.789 206.575C162.808 206.588 162.822 206.607 162.83 206.628C162.839 206.649 162.841 206.673 162.836 206.695C162.832 206.717 162.822 206.737 162.806 206.752C162.791 206.768 162.771 206.778 162.749 206.782C162.331 206.872 161.904 206.919 161.476 206.922V206.922ZM160.869 205.988H160.722C160.677 205.998 160.635 206.017 160.598 206.044C160.561 206.072 160.53 206.107 160.509 206.148C160.402 206.335 160.469 206.415 160.509 206.442C160.716 206.722 161.716 206.722 162.449 206.602C161.974 206.286 161.434 206.081 160.869 206.001V205.988Z" fill="white"/>
<path d="M162.73 206.802H162.676C162.169 206.522 161.189 205.468 161.289 204.908C161.306 204.822 161.353 204.744 161.421 204.688C161.489 204.632 161.574 204.601 161.663 204.601C161.75 204.592 161.839 204.6 161.924 204.625C162.009 204.651 162.088 204.692 162.156 204.748C162.723 205.215 162.823 206.629 162.823 206.689C162.826 206.71 162.822 206.731 162.813 206.75C162.803 206.769 162.788 206.785 162.77 206.795C162.757 206.801 162.743 206.803 162.73 206.802ZM161.743 204.802H161.689C161.536 204.802 161.523 204.895 161.516 204.922C161.456 205.248 162.083 206.055 162.583 206.435C162.548 205.879 162.348 205.345 162.009 204.902C161.933 204.843 161.839 204.813 161.743 204.815V204.802Z" fill="white"/>
<path d="M132.061 206.922C131.434 206.922 130.828 206.835 130.621 206.555C130.57 206.481 130.542 206.392 130.542 206.302C130.542 206.211 130.57 206.123 130.621 206.048C130.659 205.98 130.712 205.92 130.775 205.873C130.838 205.825 130.911 205.792 130.988 205.775C131.795 205.555 133.515 206.529 133.588 206.569C133.608 206.581 133.623 206.599 133.633 206.621C133.642 206.642 133.645 206.666 133.642 206.689C133.639 206.712 133.628 206.735 133.611 206.751C133.594 206.768 133.572 206.779 133.548 206.782C133.058 206.875 132.56 206.921 132.061 206.922V206.922ZM131.281 205.975C131.208 205.964 131.134 205.964 131.061 205.975C131.014 205.984 130.97 206.003 130.931 206.031C130.892 206.058 130.859 206.094 130.834 206.135C130.754 206.282 130.781 206.349 130.834 206.389C131.061 206.695 132.295 206.715 133.215 206.589C132.615 206.265 131.959 206.061 131.281 205.988V205.975Z" fill="white"/>
<path d="M133.542 206.802H133.495C132.901 206.542 131.735 205.468 131.821 204.928C131.821 204.795 131.935 204.635 132.255 204.602C132.374 204.583 132.495 204.592 132.611 204.627C132.726 204.661 132.832 204.721 132.922 204.802C133.548 205.308 133.675 206.629 133.682 206.689C133.684 206.709 133.681 206.73 133.673 206.749C133.665 206.767 133.652 206.784 133.635 206.795C133.621 206.803 133.605 206.808 133.589 206.809C133.573 206.81 133.557 206.808 133.542 206.802ZM132.348 204.802H132.275C132.068 204.802 132.055 204.908 132.048 204.935C131.995 205.268 132.795 206.102 133.382 206.462C133.324 205.902 133.091 205.374 132.715 204.955C132.613 204.867 132.483 204.818 132.348 204.815V204.802Z" fill="white"/>
<path d="M163.096 206.115H168.598C168.696 206.116 168.791 206.15 168.867 206.212C168.944 206.274 168.997 206.359 169.018 206.455L169.985 210.81C170.007 210.916 170.005 211.026 169.979 211.131C169.952 211.236 169.903 211.334 169.834 211.417C169.764 211.5 169.677 211.567 169.579 211.612C169.48 211.657 169.373 211.679 169.265 211.677C167.344 211.643 166.41 211.53 163.99 211.53C162.503 211.53 159.435 211.69 157.375 211.69C155.314 211.69 155.054 209.69 155.894 209.469C159.669 208.643 161.089 207.502 162.303 206.422C162.519 206.223 162.802 206.113 163.096 206.115V206.115Z" fill="#263238"/>
<path d="M134.062 206.115H139.396C139.495 206.116 139.59 206.15 139.666 206.212C139.742 206.274 139.795 206.359 139.817 206.455L140.784 210.81C140.807 210.915 140.806 211.024 140.781 211.128C140.756 211.233 140.708 211.331 140.64 211.414C140.572 211.498 140.486 211.564 140.388 211.61C140.291 211.655 140.184 211.678 140.077 211.677C138.149 211.643 135.362 211.53 132.935 211.53C130.101 211.53 127.647 211.69 124.319 211.69C122.319 211.69 121.752 209.69 122.592 209.469C126.426 208.629 129.554 208.543 132.868 206.502C133.221 206.262 133.635 206.128 134.062 206.115V206.115Z" fill="#263238"/>
<path d="M127.067 49.4999C125.126 52.3674 123.119 55.0414 120.952 57.6955C118.787 60.3767 116.471 62.9326 114.016 65.3508L113.056 66.2578L112.809 66.4845L112.643 66.6379L112.396 66.8512C112.079 67.1008 111.742 67.3239 111.389 67.5181C110.263 68.1102 109.024 68.4557 107.755 68.5317C105.817 68.6523 103.872 68.4929 101.98 68.0582C98.5515 67.2988 95.2267 66.1302 92.0772 64.5773L93.2976 61.1097C96.4225 61.7314 99.5826 62.1612 102.76 62.3967C104.156 62.5103 105.56 62.4521 106.941 62.2233C107.338 62.166 107.716 62.0201 108.048 61.7966C108.048 61.7966 108.048 61.7499 108.048 61.7499L108.095 61.6965L108.295 61.4765L109.082 60.6096C111.169 58.2289 113.19 55.7016 115.15 53.1076C117.111 50.5135 119.071 47.8728 120.945 45.2788L127.067 49.4999Z" fill="#9F5B53"/>
<path d="M129.327 50.2664C128.645 54.4034 126.857 58.279 124.152 61.4827C124.046 59.1354 124.006 57.0282 124.012 55.141L129.327 50.2664Z" fill="#BED3FC"/>
<path d="M144.411 20.4316C144.118 25.2862 144.191 28.1403 141.744 30.6343C138.056 34.382 132.068 32.1547 130.907 27.3001C129.867 22.9389 130.527 15.737 135.282 13.8031C136.328 13.3734 137.466 13.2183 138.589 13.3526C139.711 13.4869 140.781 13.9061 141.696 14.5704C142.611 15.2347 143.341 16.122 143.816 17.1478C144.291 18.1737 144.496 19.3041 144.411 20.4316V20.4316Z" fill="#9F5B53"/>
<path d="M134.982 17.2045C135.022 22.9127 136.876 29.9146 142.397 29.4278C146.065 29.1077 148.852 22.4192 149.233 19.5851C149.813 15.2506 149.899 14.4237 147.459 13.9236C148.526 13.3434 148.912 10.5894 146.418 9.92252C142.951 9.00894 136.416 8.11537 138.47 6.00146C134.375 6.74166 133.348 8.38211 134.095 10.376C131.701 10.1893 130.227 8.93559 130.301 7.04175C126.333 8.64885 123.759 17.7379 134.982 17.2045Z" fill="#263238"/>
<path d="M137.836 21.8453C137.566 23.0225 136.914 24.0774 135.982 24.8461C134.749 25.8464 133.762 24.9528 133.788 23.5125C133.788 22.2121 134.495 20.1249 135.882 19.6848C137.269 19.2446 138.176 20.425 137.836 21.8453Z" fill="#9F5B53"/>
<path d="M151.173 14.9167C150.52 14.5011 149.775 14.2542 149.003 14.1983C148.231 14.1425 147.458 14.2793 146.752 14.5966C146.752 14.5966 149.526 10.8689 151.173 14.9167Z" fill="#263238"/>
<path d="M158.509 196.752C158.468 196.752 159.435 200.2 159.435 200.2H169.531L169.345 197.126L158.509 196.752Z" fill="white"/>
<path d="M130.374 196.752C130.334 196.752 130.841 200.2 130.841 200.2H140.937L141.21 197.126L130.374 196.752Z" fill="white"/>
<path d="M133.695 194.098C133.675 194.098 133.656 194.091 133.641 194.077C133.626 194.064 133.617 194.045 133.615 194.025C132.148 179.941 128.7 145.865 128.28 133.642C127.833 121.165 128.24 93.1713 128.374 84.8891C128.374 84.8424 128.414 84.8158 128.46 84.8091C128.481 84.8106 128.501 84.8195 128.515 84.8342C128.53 84.8489 128.539 84.8684 128.54 84.8891C128.407 93.1713 128 121.166 128.447 133.636C128.88 145.859 132.328 179.921 133.782 194.005C133.782 194.028 133.774 194.05 133.759 194.067C133.745 194.084 133.724 194.095 133.702 194.098H133.695Z" fill="white"/>
<path opacity="0.3" d="M133.695 194.098C133.675 194.098 133.656 194.091 133.641 194.077C133.626 194.064 133.617 194.045 133.615 194.025C132.148 179.941 128.7 145.865 128.28 133.642C127.833 121.165 128.24 93.1713 128.374 84.8891C128.374 84.8424 128.414 84.8158 128.46 84.8091C128.481 84.8106 128.501 84.8195 128.515 84.8342C128.53 84.8489 128.539 84.8684 128.54 84.8891C128.407 93.1713 128 121.166 128.447 133.636C128.88 145.859 132.328 179.921 133.782 194.005C133.782 194.028 133.774 194.05 133.759 194.067C133.745 194.084 133.724 194.095 133.702 194.098H133.695Z" fill="black"/>
<path d="M131.588 43.6984C132.255 48.3663 123.092 60.1895 123.092 60.1895L113.91 53.8678C113.91 53.8678 116.457 47.3393 120.745 43.0582C125.639 38.2102 130.881 38.6503 131.588 43.6984Z" fill="white"/>
<path opacity="0.8" d="M131.588 43.6984C132.255 48.3663 123.092 60.1895 123.092 60.1895L113.91 53.8678C113.91 53.8678 116.457 47.3393 120.745 43.0582C125.639 38.2102 130.881 38.6503 131.588 43.6984Z" fill="white"/>
<path d="M126.42 39.7302C126.42 39.7302 121.205 45.6185 126.126 82.0749H152.333C152.513 78.0739 149.986 58.4286 153.86 39.4768C150.964 38.9192 148.035 38.5494 145.091 38.3699C141.382 38.1563 137.664 38.1563 133.955 38.3699C131.412 38.6261 128.892 39.081 126.42 39.7302V39.7302Z" fill="white"/>
<path opacity="0.8" d="M126.42 39.7302C126.42 39.7302 121.205 45.6185 126.126 82.0749H152.333C152.513 78.0739 149.986 58.4286 153.86 39.4768C150.964 38.9192 148.035 38.5494 145.091 38.3699C141.382 38.1563 137.664 38.1563 133.955 38.3699C131.412 38.6261 128.892 39.081 126.42 39.7302V39.7302Z" fill="white"/>
<path d="M86.8447 64.915L82.3032 62.2871L80.2793 68.1744C80.2793 68.1744 83.9035 70.1055 86.8982 68.3475L86.8447 64.915Z" fill="#9F5B53"/>
<path d="M77.0183 61.7755L77.1238 67.2786L80.2598 68.2685L82.2802 62.3905L77.0183 61.7755Z" fill="#9F5B53"/>
<path d="M31.3035 76.3525C31.3024 75.4101 31.5005 74.4885 31.8841 73.6509C32.2677 72.8134 32.8278 72.0799 33.5259 71.5007C34.2239 70.9215 35.0434 70.5105 35.928 70.2958C36.8126 70.0811 37.7413 70.0679 38.6503 70.257L34.2511 69.3417C32.6295 69.0241 31.1546 68.0967 30.1202 66.7443C29.0857 65.3918 28.5676 63.7135 28.6689 62.0435C28.7451 61.1564 28.9988 60.3035 29.4143 59.5376C29.8298 58.7716 30.3983 58.1088 31.0847 57.5902C31.7711 57.0716 32.5608 56.7082 33.405 56.5224C34.2493 56.3366 35.1301 56.3324 35.993 56.51L31.596 55.6012C29.9728 55.2839 28.4965 54.3558 27.4615 53.0019C26.4264 51.648 25.9088 49.9678 26.0117 48.2965C26.0849 47.4027 26.3383 46.5429 26.7562 45.7712C27.1741 44.9995 27.7473 44.3325 28.4399 43.8121C29.1325 43.2918 29.9296 42.9292 30.781 42.7472C31.6325 42.5653 32.52 42.5678 33.3877 42.7547L12.4812 38.3531C10.9532 38.0608 9.55061 37.2243 8.52469 35.9935C7.49876 34.7626 6.91663 33.218 6.88265 31.6364C6.88332 30.694 7.08277 29.7727 7.46735 28.9355C7.85193 28.0984 8.41255 27.3652 9.11083 26.7862C9.80911 26.2071 10.6286 25.7959 11.5131 25.5807C12.3976 25.3654 13.3263 25.3512 14.2356 25.5391L58.2629 34.8026L49.0937 19.5288C48.18 17.9921 47.8528 16.1848 48.1781 14.4718C48.5034 12.7588 49.457 11.2677 50.8464 10.2997C52.2357 9.33164 53.9573 8.95873 55.6635 9.25626C57.3697 9.55378 58.9334 10.4996 60.0388 11.9026L83.0849 41.4518C85.0567 43.9768 87.8227 45.7238 90.8676 46.3671L93.3838 46.8945C93.7693 46.9752 94.1392 47.1325 94.4722 47.3574C94.8051 47.5823 95.0946 47.8704 95.324 48.2052C95.5533 48.5399 95.7181 48.9147 95.8087 49.308C95.8993 49.7014 95.9141 50.1054 95.8521 50.4971L90.5487 84.7086C90.4255 85.4994 89.999 86.1926 89.3625 86.6363C88.7261 87.0801 87.9317 87.2381 87.1535 87.0758L80.9755 85.7773C78.6418 85.3049 76.2572 85.4861 74.0765 86.3015C68.7853 88.2159 63.0179 88.5993 57.3859 87.4112L36.8397 83.0877C35.3196 82.7813 33.9289 81.9363 32.9151 80.7029C31.9013 79.4696 31.3302 77.928 31.3035 76.3525V76.3525Z" fill="white"/>
<path d="M88.9085 87.9713C88.305 88.1511 87.6611 88.1761 87.0315 88.0443L80.8535 86.7458C78.6954 86.311 76.4909 86.4736 74.4703 87.2166C69.0144 89.1918 63.0675 89.5892 57.2593 88.3667L36.7129 84.0432C34.9585 83.6903 33.353 82.7162 32.1816 81.294C31.0103 79.8718 30.3489 78.0935 30.3151 76.2752C30.3125 75.1852 30.5417 74.1191 30.9867 73.1512C31.4316 72.1832 32.0817 71.3365 32.8917 70.67C33.1098 70.4854 33.3407 70.317 33.5827 70.1659C31.8294 69.6887 30.2715 68.5888 29.1926 67.0667C28.1138 65.5446 27.5859 63.7016 27.7051 61.8734C27.7846 60.845 28.0741 59.8555 28.5551 58.9686C29.0361 58.0817 29.6979 57.3169 30.4979 56.7236C30.6473 56.6152 30.7967 56.5068 30.9504 56.4114C29.1964 55.9354 27.6377 54.8358 26.5586 53.3134C25.4795 51.791 24.9521 49.9472 25.0727 48.1188C25.1533 47.0914 25.4436 46.1031 25.925 45.2174C26.4063 44.3316 27.0681 43.568 27.8677 42.9755C28.0046 42.8708 28.1499 42.7708 28.2911 42.6791L12.323 39.3174C10.5686 38.9645 8.96306 37.9904 7.79169 36.5682C6.62033 35.1459 5.95896 33.3677 5.92512 31.5494C5.92597 30.4613 6.15631 29.3976 6.60037 28.4311C7.04443 27.4646 7.69173 26.6181 8.49795 25.9496C9.30417 25.281 10.2503 24.8062 11.2715 24.5577C12.2927 24.3092 13.365 24.2927 14.4149 24.5096L56.3138 33.3443L48.3012 20.012C47.2571 18.2514 46.885 16.1817 47.2603 14.221C47.6356 12.2604 48.7302 10.5551 50.323 9.44962C51.9158 8.34417 53.888 7.92103 55.841 8.2657C57.7941 8.61037 59.5824 9.69715 60.8446 11.3064L83.8909 40.856C85.7098 43.1851 88.2618 44.7959 91.0707 45.3879L93.5807 45.9172C94.0942 46.0245 94.5869 46.2338 95.0305 46.533C95.4741 46.8323 95.86 47.2157 96.1659 47.6612C96.4718 48.1067 96.6919 48.6056 96.8133 49.1292C96.9348 49.6529 96.9554 50.1911 96.8739 50.7129L91.5725 84.9313C91.4528 85.6526 91.1413 86.317 90.6718 86.8528C90.2022 87.3886 89.5925 87.7754 88.9085 87.9713V87.9713ZM74.5406 85.0531C76.6661 84.409 78.9368 84.3089 81.1597 84.7614L87.3377 86.06C87.5953 86.1158 87.8586 86.1192 88.1125 86.07C88.3664 86.0208 88.6059 85.9199 88.817 85.7731C89.0281 85.6264 89.2068 85.4368 89.3426 85.2152C89.4784 84.9936 89.5686 84.7444 89.6082 84.4821L94.9095 50.2637C94.9503 50.0022 94.9399 49.7325 94.8787 49.4701C94.8176 49.2077 94.707 48.9578 94.5533 48.7348C94.3996 48.5118 94.2058 48.3201 93.983 48.1707C93.7603 48.0213 93.5131 47.9173 93.2556 47.8645L90.7456 47.3352C87.4721 46.6424 84.4993 44.7614 82.3827 42.0439L59.3302 12.4962C58.3934 11.2756 57.0534 10.4469 55.5852 10.1805C54.117 9.91401 52.632 10.2299 51.4353 11.0634C50.2385 11.8969 49.4207 13.1846 49.1499 14.6622C48.879 16.1398 49.1756 17.6951 49.9788 19.0088L59.1626 34.2856C59.2642 34.454 59.3175 34.6467 59.316 34.8403C59.3146 35.034 59.2585 35.2204 59.1546 35.3771C59.0518 35.5361 58.9043 35.6585 58.7304 35.729C58.5565 35.7996 58.3637 35.8154 58.176 35.7743L14.1483 26.5106C13.3816 26.3512 12.5983 26.3623 11.8522 26.5432C11.106 26.7241 10.4147 27.0705 9.82572 27.5586C9.22623 28.0436 8.74614 28.6648 8.42036 29.3771C8.09458 30.0895 7.93127 30.8751 7.94231 31.6768C7.96952 33.0187 8.46114 34.33 9.32931 35.3764C10.1975 36.4228 11.3856 37.136 12.6815 37.3887L33.5945 41.7884C33.8533 41.8428 34.0854 41.9995 34.2397 42.2241C34.394 42.4486 34.4578 42.7226 34.4172 42.9857C34.3971 43.116 34.352 43.2397 34.2844 43.3498C34.2167 43.4599 34.128 43.5541 34.0231 43.6272C33.8114 43.7748 33.5471 43.8272 33.2883 43.7728C32.5591 43.6217 31.8146 43.6246 31.101 43.7812C30.3874 43.9379 29.7199 44.2451 29.14 44.6836C28.5554 45.1173 28.0714 45.6758 27.7189 46.3234C27.3664 46.971 27.1532 47.6934 27.0928 48.4447C27.0083 49.8609 27.4493 51.2835 28.328 52.4291C29.2067 53.5747 30.4585 54.359 31.8339 54.6258L36.233 55.5411C36.4763 55.6111 36.6891 55.7718 36.8286 55.9909C36.9681 56.21 37.0239 56.4712 36.9848 56.722C36.9458 56.9727 36.8147 57.1944 36.618 57.3423C36.4212 57.4902 36.1735 57.5533 35.9247 57.519V57.519C35.1967 57.369 34.4535 57.3722 33.7411 57.5285C33.0288 57.6849 32.3622 57.991 31.7827 58.428C31.1983 58.8632 30.7147 59.4229 30.3626 60.0715C30.0105 60.7202 29.7977 61.4435 29.7376 62.1955C29.6547 63.6104 30.0962 65.0312 30.9743 66.1754C31.8523 67.3195 33.1027 68.103 34.4766 68.3702L38.8758 69.2855C39.1346 69.3399 39.3667 69.4966 39.521 69.7211C39.6753 69.9457 39.7391 70.2197 39.6985 70.4828C39.6579 70.7459 39.5162 70.9767 39.3044 71.1243C39.0927 71.2719 38.8284 71.3243 38.5695 71.2699V71.2699C37.8028 71.1134 37.02 71.1266 36.2746 71.3085C35.5291 71.4905 34.8383 71.8369 34.2491 72.3243C33.6532 72.8117 33.1759 73.4334 32.8515 74.1449C32.527 74.8565 32.3632 75.6403 32.372 76.4407V76.4407C32.3978 77.7829 32.889 79.0949 33.7574 80.1416C34.6258 81.1883 35.8147 81.9012 37.1111 82.1526L57.6575 86.476C63.0923 87.5931 68.6497 87.2049 73.7489 85.3521C74.0232 85.2707 74.2766 85.1456 74.5448 85.066L74.5406 85.0531Z" fill="white"/>
<path d="M43.8424 72.513C43.6899 72.5596 43.5266 72.5662 43.3672 72.5323L37.8766 71.3603C37.7477 71.3332 37.624 71.2805 37.5126 71.2052C37.4012 71.1299 37.3044 71.0335 37.2275 70.9216C37.1506 70.8096 37.0953 70.6842 37.0646 70.5526C37.034 70.421 37.0286 70.2857 37.0489 70.1545C37.0691 70.0232 37.1145 69.8986 37.1825 69.7878C37.2506 69.6769 37.3399 69.582 37.4453 69.5084C37.5508 69.4347 37.6704 69.3839 37.7972 69.3588C37.9241 69.3336 38.0558 69.3346 38.1847 69.3617L43.7004 70.5262C43.9198 70.5722 44.1215 70.6917 44.2731 70.8657C44.4248 71.0397 44.5176 71.2581 44.5369 71.486C44.5561 71.7139 44.5006 71.9381 44.3793 72.1229C44.258 72.3078 44.0778 72.4425 43.8675 72.5055L43.8424 72.513Z" fill="white"/>
<path d="M41.5124 58.9798C41.36 59.0273 41.1965 59.0339 41.0371 58.9991L35.5213 57.8345C35.3854 57.8158 35.2534 57.7686 35.1334 57.6961C35.0135 57.6235 34.9082 57.527 34.8242 57.4127C34.7402 57.2983 34.6792 57.1685 34.645 57.0314C34.6108 56.8943 34.6042 56.7527 34.6255 56.6156C34.6469 56.4785 34.6957 56.3488 34.7691 56.2344C34.8424 56.1201 34.9386 56.0237 35.0518 55.9511C35.1649 55.8786 35.2925 55.8315 35.4267 55.8128C35.5608 55.7941 35.6986 55.8041 35.8315 55.8424L41.3452 57.0004C41.5647 57.0464 41.7664 57.1659 41.918 57.3399C42.0696 57.5139 42.1625 57.7323 42.1817 57.9602C42.201 58.1881 42.1455 58.4124 42.0242 58.5972C41.9028 58.782 41.7226 58.9167 41.5124 58.9798V58.9798Z" fill="white"/>
<path d="M39.1785 45.4524C39.0273 45.4953 38.8668 45.5013 38.7096 45.4699L33.1939 44.3054C33.0649 44.2783 32.9413 44.2256 32.8299 44.1503C32.7185 44.075 32.6216 43.9786 32.5448 43.8666C32.4679 43.7547 32.4125 43.6293 32.3819 43.4977C32.3512 43.366 32.3459 43.2308 32.3661 43.0995C32.3863 42.9683 32.4318 42.8437 32.4998 42.7328C32.5678 42.622 32.6571 42.527 32.7626 42.4534C32.8681 42.3798 32.9876 42.329 33.1145 42.3038C33.2414 42.2787 33.373 42.2797 33.5019 42.3068L39.0176 43.4713C39.2377 43.5174 39.4398 43.6374 39.5915 43.8121C39.7433 43.9867 39.8359 44.2059 39.8544 44.4344C39.873 44.6629 39.8164 44.8875 39.6938 45.0721C39.5713 45.2568 39.3898 45.3907 39.1785 45.4524V45.4524Z" fill="white"/>
<path opacity="0.3" d="M88.9085 87.9713C88.305 88.1511 87.6611 88.1761 87.0315 88.0443L80.8535 86.7458C78.6954 86.311 76.4909 86.4736 74.4703 87.2166C69.0144 89.1918 63.0675 89.5892 57.2593 88.3667L36.7129 84.0432C34.9585 83.6903 33.353 82.7162 32.1816 81.294C31.0103 79.8718 30.3489 78.0935 30.3151 76.2752C30.3125 75.1852 30.5417 74.1191 30.9867 73.1512C31.4316 72.1832 32.0817 71.3365 32.8917 70.67C33.1098 70.4854 33.3407 70.317 33.5827 70.1659C31.8294 69.6887 30.2715 68.5888 29.1926 67.0667C28.1138 65.5446 27.5859 63.7016 27.7051 61.8734C27.7846 60.845 28.0741 59.8555 28.5551 58.9686C29.0361 58.0817 29.6979 57.3169 30.4979 56.7236C30.6473 56.6152 30.7967 56.5068 30.9504 56.4114C29.1964 55.9354 27.6377 54.8358 26.5586 53.3134C25.4795 51.791 24.9521 49.9472 25.0727 48.1188C25.1533 47.0914 25.4436 46.1031 25.925 45.2174C26.4063 44.3316 27.0681 43.568 27.8677 42.9755C28.0046 42.8708 28.1499 42.7708 28.2911 42.6791L12.323 39.3174C10.5686 38.9645 8.96306 37.9904 7.79169 36.5682C6.62033 35.1459 5.95896 33.3677 5.92512 31.5494C5.92597 30.4613 6.15631 29.3976 6.60037 28.4311C7.04443 27.4646 7.69173 26.6181 8.49795 25.9496C9.30417 25.281 10.2503 24.8062 11.2715 24.5577C12.2927 24.3092 13.365 24.2927 14.4149 24.5096L56.3138 33.3443L48.3012 20.012C47.2571 18.2514 46.885 16.1817 47.2603 14.221C47.6356 12.2604 48.7302 10.5551 50.323 9.44962C51.9158 8.34417 53.888 7.92103 55.841 8.2657C57.7941 8.61037 59.5824 9.69715 60.8446 11.3064L83.8909 40.856C85.7098 43.1851 88.2618 44.7959 91.0707 45.3879L93.5807 45.9172C94.0942 46.0245 94.5869 46.2338 95.0305 46.533C95.4741 46.8323 95.86 47.2157 96.1659 47.6612C96.4718 48.1067 96.6919 48.6056 96.8133 49.1292C96.9348 49.6529 96.9554 50.1911 96.8739 50.7129L91.5725 84.9313C91.4528 85.6526 91.1413 86.317 90.6718 86.8528C90.2022 87.3886 89.5925 87.7754 88.9085 87.9713V87.9713ZM74.5406 85.0531C76.6661 84.409 78.9368 84.3089 81.1597 84.7614L87.3377 86.06C87.5953 86.1158 87.8586 86.1192 88.1125 86.07C88.3664 86.0208 88.6059 85.9199 88.817 85.7731C89.0281 85.6264 89.2068 85.4368 89.3426 85.2152C89.4784 84.9936 89.5686 84.7444 89.6082 84.4821L94.9095 50.2637C94.9503 50.0022 94.9399 49.7325 94.8787 49.4701C94.8176 49.2077 94.707 48.9578 94.5533 48.7348C94.3996 48.5118 94.2058 48.3201 93.983 48.1707C93.7603 48.0213 93.5131 47.9173 93.2556 47.8645L90.7456 47.3352C87.4721 46.6424 84.4993 44.7614 82.3827 42.0439L59.3302 12.4962C58.3934 11.2756 57.0534 10.4469 55.5852 10.1805C54.117 9.91401 52.632 10.2299 51.4353 11.0634C50.2385 11.8969 49.4207 13.1846 49.1499 14.6622C48.879 16.1398 49.1756 17.6951 49.9788 19.0088L59.1626 34.2856C59.2642 34.454 59.3175 34.6467 59.316 34.8403C59.3146 35.034 59.2585 35.2204 59.1546 35.3771C59.0518 35.5361 58.9043 35.6585 58.7304 35.729C58.5565 35.7996 58.3637 35.8154 58.176 35.7743L14.1483 26.5106C13.3816 26.3512 12.5983 26.3623 11.8522 26.5432C11.106 26.7241 10.4147 27.0705 9.82572 27.5586C9.22623 28.0436 8.74614 28.6648 8.42036 29.3771C8.09458 30.0895 7.93127 30.8751 7.94231 31.6768C7.96952 33.0187 8.46114 34.33 9.32931 35.3764C10.1975 36.4228 11.3856 37.136 12.6815 37.3887L33.5945 41.7884C33.8533 41.8428 34.0854 41.9995 34.2397 42.2241C34.394 42.4486 34.4578 42.7226 34.4172 42.9857C34.3971 43.116 34.352 43.2397 34.2844 43.3498C34.2167 43.4599 34.128 43.5541 34.0231 43.6272C33.8114 43.7748 33.5471 43.8272 33.2883 43.7728C32.5591 43.6217 31.8146 43.6246 31.101 43.7812C30.3874 43.9379 29.7199 44.2451 29.14 44.6836C28.5554 45.1173 28.0714 45.6758 27.7189 46.3234C27.3664 46.971 27.1532 47.6934 27.0928 48.4447C27.0083 49.8609 27.4493 51.2835 28.328 52.4291C29.2067 53.5747 30.4585 54.359 31.8339 54.6258L36.233 55.5411C36.4763 55.6111 36.6891 55.7718 36.8286 55.9909C36.9681 56.21 37.0239 56.4712 36.9848 56.722C36.9458 56.9727 36.8147 57.1944 36.618 57.3423C36.4212 57.4902 36.1735 57.5533 35.9247 57.519V57.519C35.1967 57.369 34.4535 57.3722 33.7411 57.5285C33.0288 57.6849 32.3622 57.991 31.7827 58.428C31.1983 58.8632 30.7147 59.4229 30.3626 60.0715C30.0105 60.7202 29.7977 61.4435 29.7376 62.1955C29.6547 63.6104 30.0962 65.0312 30.9743 66.1754C31.8523 67.3195 33.1027 68.103 34.4766 68.3702L38.8758 69.2855C39.1346 69.3399 39.3667 69.4966 39.521 69.7211C39.6753 69.9457 39.7391 70.2197 39.6985 70.4828C39.6579 70.7459 39.5162 70.9767 39.3044 71.1243C39.0927 71.2719 38.8284 71.3243 38.5695 71.2699V71.2699C37.8028 71.1134 37.02 71.1266 36.2746 71.3085C35.5291 71.4905 34.8383 71.8369 34.2491 72.3243C33.6532 72.8117 33.1759 73.4334 32.8515 74.1449C32.527 74.8565 32.3632 75.6403 32.372 76.4407V76.4407C32.3978 77.7829 32.889 79.0949 33.7574 80.1416C34.6258 81.1883 35.8147 81.9012 37.1111 82.1526L57.6575 86.476C63.0923 87.5931 68.6497 87.2049 73.7489 85.3521C74.0232 85.2707 74.2766 85.1456 74.5448 85.066L74.5406 85.0531Z" fill="black"/>
</svg>
