<svg width="234" height="215" viewBox="0 0 234 215" fill="none" xmlns="http://www.w3.org/2000/svg">
<path d="M117 214.536C181.25 214.536 233.334 211.495 233.334 207.744C233.334 203.993 181.25 200.952 117 200.952C52.7505 200.952 0.666016 203.993 0.666016 207.744C0.666016 211.495 52.7505 214.536 117 214.536Z" fill="#F5F5F5"/>
<path d="M130.704 98.136C127.506 99.48 124.398 96.234 123.432 101.436C122.466 106.638 119.898 106.392 118.302 108.75C116.706 111.108 116.034 114.534 120.666 116.502C125.298 118.47 135.168 122.778 135.3 117.504C135.432 112.23 132.366 111.366 136.068 109.398C139.77 107.43 137.4 102.54 135.864 102.198C136.764 98.268 133.476 96.966 130.704 98.136Z" fill="#263238"/>
<path d="M103.59 96.294L104.556 96.684C104.736 96.7552 104.896 96.8687 105.022 97.015C105.148 97.1612 105.238 97.3358 105.282 97.524L105.708 99.324C105.793 99.6739 105.792 100.039 105.707 100.389C105.621 100.739 105.453 101.063 105.216 101.334L104.916 101.676C103.272 101.142 101.886 99.348 101.886 99.348L101.436 98.88C101.341 98.7862 101.266 98.6746 101.214 98.5515C101.163 98.4284 101.137 98.2964 101.137 98.163C101.137 98.0296 101.163 97.8975 101.214 97.7745C101.266 97.6514 101.341 97.5397 101.436 97.446L102.348 96.54C102.512 96.3873 102.714 96.2833 102.934 96.2398C103.153 96.1964 103.381 96.2151 103.59 96.294V96.294Z" fill="#CE7A63"/>
<path d="M122.4 120.12C120.162 119.322 118.032 118.518 115.854 117.636C114.768 117.186 113.688 116.712 112.59 116.202C112.038 115.944 111.492 115.674 110.928 115.362C110.319 115.035 109.731 114.668 109.17 114.264C109.014 114.144 108.864 114.03 108.69 113.874L108.432 113.652L108.156 113.37L108.024 113.226L107.94 113.118L107.772 112.896C107.658 112.752 107.538 112.596 107.442 112.458L106.896 111.642L106.41 110.85C105.81 109.8 105.246 108.762 104.712 107.724C103.638 105.654 102.66 103.614 101.628 101.526L106.212 99.456C107.064 101.466 108.048 103.488 109.086 105.408C109.614 106.362 110.16 107.304 110.724 108.174C111.012 108.606 111.288 109.02 111.576 109.374C111.648 109.464 111.708 109.524 111.774 109.596L111.87 109.704L111.918 109.758L111.99 109.812L112.176 109.938C112.995 110.409 113.852 110.81 114.738 111.138C115.704 111.528 116.736 111.864 117.774 112.188C119.838 112.836 122.01 113.388 124.11 113.856L122.4 120.12Z" fill="#00A2A5"/>
<path d="M122.268 203.496C124.854 203.496 125.268 203.454 126.744 203.406C127.992 203.364 128.286 203.514 129.288 203.496C130.122 203.496 130.092 202.68 129.834 201.756C129.708 201.294 129.504 200.73 129.33 199.986H125.4C124.866 201 123.174 201.786 121.722 201.96C120.27 202.134 121.236 203.496 122.268 203.496Z" fill="#00A2A5"/>
<path d="M97.488 202.008C99.978 202.53 100.848 202.548 102.288 202.794C103.488 203.004 103.488 203.232 104.688 203.514C105.492 203.7 105.852 202.83 105.744 202.092C105.637 201.441 105.581 200.783 105.576 200.124L102.36 198.966C101.695 199.558 100.912 200.002 100.063 200.27C99.2143 200.538 98.3182 200.623 97.434 200.52C96 200.334 96.492 201.798 97.488 202.008Z" fill="#00A2A5"/>
<path d="M113.046 134.958C113.046 134.958 105.6 151.89 103.746 163.2C102.78 173.238 102.276 198.702 102.276 198.702C102.144 199.236 104.982 200.214 105.582 200.118C105.582 200.118 111.882 175.95 111.27 163.656C122.484 148.248 125.238 135.876 125.238 135.876L113.046 134.958Z" fill="#263238"/>
<path opacity="0.2" d="M118.854 143.166C117.186 145.14 116.394 151.998 116.058 156.48C118.052 153.233 119.845 149.866 121.428 146.4C121.128 144.69 120.306 143.46 118.854 143.166Z" fill="black"/>
<path d="M116.682 135.234C116.682 135.234 116.22 156.06 118.032 166.32C119.934 177.09 125.832 192.912 125.4 199.986C126 200.334 128.136 200.358 129.33 199.986C129.33 199.986 131.364 176.16 125.244 165.912C126.57 155.652 130.098 142.368 126.966 136.02L116.682 135.234Z" fill="#263238"/>
<path d="M125.106 198.51C125.093 198.997 125.047 199.482 124.968 199.962C124.959 200.002 124.959 200.044 124.967 200.084C124.975 200.125 124.992 200.163 125.016 200.197C125.039 200.231 125.07 200.259 125.105 200.281C125.14 200.302 125.179 200.316 125.22 200.322C126.623 200.448 128.038 200.373 129.42 200.1C129.481 200.088 129.537 200.057 129.58 200.012C129.623 199.967 129.651 199.91 129.66 199.848L129.876 198.492C129.883 198.448 129.88 198.403 129.868 198.361C129.856 198.318 129.834 198.279 129.805 198.246C129.776 198.212 129.74 198.186 129.699 198.168C129.658 198.151 129.614 198.143 129.57 198.144L125.418 198.222C125.378 198.22 125.339 198.225 125.301 198.238C125.264 198.252 125.23 198.272 125.201 198.299C125.171 198.326 125.148 198.359 125.132 198.395C125.115 198.431 125.107 198.47 125.106 198.51V198.51Z" fill="#263238"/>
<path opacity="0.1" d="M125.106 198.51C125.093 198.997 125.047 199.482 124.968 199.962C124.959 200.002 124.959 200.044 124.967 200.084C124.975 200.125 124.992 200.163 125.016 200.197C125.039 200.231 125.07 200.259 125.105 200.281C125.14 200.302 125.179 200.316 125.22 200.322C126.623 200.448 128.038 200.373 129.42 200.1C129.481 200.088 129.537 200.057 129.58 200.012C129.623 199.967 129.651 199.91 129.66 199.848L129.876 198.492C129.883 198.448 129.88 198.403 129.868 198.361C129.856 198.318 129.834 198.279 129.805 198.246C129.776 198.212 129.74 198.186 129.699 198.168C129.658 198.151 129.614 198.143 129.57 198.144L125.418 198.222C125.378 198.22 125.339 198.225 125.301 198.238C125.264 198.252 125.23 198.272 125.201 198.299C125.171 198.326 125.148 198.359 125.132 198.395C125.115 198.431 125.107 198.47 125.106 198.51V198.51Z" fill="white"/>
<path d="M102 197.778C101.91 198.15 101.754 198.81 101.616 199.29C101.595 199.366 101.605 199.448 101.643 199.517C101.681 199.586 101.745 199.638 101.82 199.662C103.076 199.965 104.358 200.154 105.648 200.226C105.711 200.231 105.774 200.215 105.828 200.182C105.882 200.148 105.924 200.099 105.948 200.04L106.482 198.75C106.499 198.708 106.506 198.664 106.504 198.619C106.501 198.574 106.489 198.531 106.468 198.491C106.447 198.452 106.417 198.417 106.381 198.39C106.345 198.364 106.304 198.345 106.26 198.336L102.348 197.556C102.273 197.541 102.194 197.556 102.13 197.598C102.065 197.639 102.019 197.703 102 197.778Z" fill="#263238"/>
<path opacity="0.1" d="M102 197.778C101.91 198.15 101.754 198.81 101.616 199.29C101.595 199.366 101.605 199.448 101.643 199.517C101.681 199.586 101.745 199.638 101.82 199.662C103.076 199.965 104.358 200.154 105.648 200.226C105.711 200.231 105.774 200.215 105.828 200.182C105.882 200.148 105.924 200.099 105.948 200.04L106.482 198.75C106.499 198.708 106.506 198.664 106.504 198.619C106.501 198.574 106.489 198.531 106.468 198.491C106.447 198.452 106.417 198.417 106.381 198.39C106.345 198.364 106.304 198.345 106.26 198.336L102.348 197.556C102.273 197.541 102.194 197.556 102.13 197.598C102.065 197.639 102.019 197.703 102 197.778Z" fill="white"/>
<path d="M115.8 117.312C115.452 118.644 114.894 120.102 114.222 123.312C113.504 127.155 113.103 131.05 113.022 134.958C114.822 136.578 120.882 136.302 126.942 136.02C126.942 132.078 128.574 128.442 132.978 120.366C133.226 119.947 133.376 119.477 133.417 118.992C133.458 118.507 133.39 118.019 133.217 117.563C133.045 117.108 132.771 116.698 132.418 116.362C132.065 116.027 131.641 115.775 131.178 115.626C130.65 115.446 130.092 115.272 129.51 115.11C127.486 114.494 125.421 114.025 123.33 113.706C122.646 113.616 121.932 113.544 121.242 113.484C120.032 113.394 118.828 113.726 117.836 114.424C116.844 115.122 116.124 116.143 115.8 117.312V117.312Z" fill="#00A2A5"/>
<path opacity="0.2" d="M129.6 120.396C129.366 122.382 129.6 124.698 130.2 125.664C130.698 124.68 131.256 123.606 131.886 122.436L129.6 120.396Z" fill="black"/>
<path d="M126.708 124.14L122.748 122.94C122.709 122.928 122.672 122.909 122.64 122.883C122.608 122.857 122.582 122.825 122.563 122.788C122.544 122.752 122.533 122.712 122.529 122.671C122.526 122.63 122.531 122.589 122.544 122.55L123.186 120.612C123.213 120.534 123.269 120.468 123.343 120.429C123.416 120.391 123.502 120.381 123.582 120.402L127.542 121.602C127.581 121.614 127.618 121.633 127.65 121.659C127.682 121.685 127.708 121.717 127.727 121.754C127.746 121.79 127.757 121.83 127.761 121.871C127.764 121.912 127.759 121.953 127.746 121.992L127.11 123.924C127.084 124.005 127.027 124.072 126.952 124.113C126.877 124.153 126.79 124.163 126.708 124.14Z" fill="white"/>
<path d="M125.82 121.428L124.944 121.152C124.908 121.152 124.902 121.074 124.944 121.002L125.274 120.174C125.304 120.102 125.358 120.054 125.394 120.066L126.264 120.336C126.3 120.336 126.312 120.414 126.264 120.486L125.928 121.314C125.91 121.386 125.856 121.434 125.82 121.428Z" fill="#263238"/>
<path d="M130.704 108.054C129.714 109.92 128.226 113.412 129.216 115.032C129.216 115.032 126.642 115.032 122.34 117.504C121.554 115.584 123.036 113.628 123.036 113.628C125.436 113.628 125.856 111.984 125.934 110.376L130.704 108.054Z" fill="#CE7A63"/>
<path opacity="0.2" d="M128.76 109.002L125.934 110.4C125.925 110.778 125.878 111.153 125.796 111.522C126.678 111.594 128.124 110.922 128.484 110.094C128.642 109.75 128.735 109.38 128.76 109.002V109.002Z" fill="black"/>
<path d="M133.572 105.6C132.126 108.348 131.574 109.536 129.372 110.4C126.054 111.684 122.664 109.434 123.186 106.344C123.654 103.56 125.946 99.54 129.474 99.564C133.002 99.588 135 102.882 133.572 105.6Z" fill="#CE7A63"/>
<path d="M134.814 102.054C131.854 102.125 128.945 101.267 126.498 99.6C129 98.49 133.482 98.58 134.814 102.054Z" fill="#263238"/>
<path d="M128.814 103.65C128.712 103.902 128.496 104.052 128.334 103.986C128.172 103.92 128.124 103.668 128.232 103.422C128.34 103.176 128.55 103.026 128.712 103.086C128.874 103.146 128.922 103.404 128.814 103.65Z" fill="#263238"/>
<path d="M126.03 102.546C125.922 102.792 125.706 102.942 125.55 102.876C125.394 102.81 125.34 102.564 125.448 102.312C125.556 102.06 125.766 101.916 125.928 101.982C126.09 102.048 126.132 102.3 126.03 102.546Z" fill="#263238"/>
<path d="M126 102L125.478 101.592C125.478 101.592 125.58 102.204 126 102Z" fill="#263238"/>
<path d="M128.778 103.128L128.262 102.72C128.262 102.72 128.364 103.308 128.778 103.128Z" fill="#263238"/>
<path d="M126.174 103.422C125.649 103.894 125.067 104.297 124.44 104.622C124.608 105.072 125.244 105.18 125.244 105.18L126.174 103.422Z" fill="#BA4D3C"/>
<path d="M125.646 106.404C125.502 106.346 125.364 106.276 125.232 106.194C125.218 106.179 125.21 106.158 125.21 106.137C125.21 106.116 125.218 106.096 125.232 106.08C125.249 106.066 125.27 106.059 125.292 106.059C125.314 106.059 125.335 106.066 125.352 106.08C125.645 106.272 125.977 106.396 126.324 106.44C126.671 106.485 127.024 106.45 127.356 106.338C127.366 106.333 127.376 106.33 127.387 106.33C127.398 106.329 127.409 106.331 127.419 106.335C127.43 106.339 127.439 106.345 127.446 106.353C127.454 106.361 127.46 106.37 127.464 106.38C127.469 106.39 127.471 106.4 127.471 106.411C127.472 106.422 127.469 106.433 127.465 106.443C127.46 106.452 127.453 106.461 127.445 106.468C127.436 106.475 127.427 106.48 127.416 106.482C126.838 106.683 126.204 106.655 125.646 106.404V106.404Z" fill="#263238"/>
<path d="M132.96 108.534C132.673 108.677 132.36 108.759 132.039 108.775C131.719 108.79 131.399 108.739 131.1 108.624C130.374 108.306 130.662 107.424 131.406 106.884C132.15 106.344 133.26 105.996 133.728 106.614C134.196 107.232 133.74 108.168 132.96 108.534Z" fill="#CE7A63"/>
<path d="M131.916 101.466C130.218 103.632 132.402 105.918 130.218 107.766C128.034 109.614 121.818 117.264 130.074 115.26C131.748 113.4 136.248 107.268 135.768 105.282C135.288 103.296 134.952 100.416 131.916 101.466Z" fill="#263238"/>
<path d="M130.23 103.47C130.211 103.459 130.194 103.445 130.18 103.427C130.167 103.41 130.157 103.389 130.152 103.368C130.116 103.172 130.032 102.989 129.907 102.834C129.782 102.679 129.621 102.557 129.438 102.48C129.418 102.473 129.4 102.463 129.384 102.449C129.368 102.435 129.356 102.417 129.348 102.398C129.339 102.379 129.335 102.358 129.335 102.337C129.335 102.316 129.339 102.295 129.348 102.276C129.365 102.236 129.397 102.204 129.437 102.186C129.477 102.168 129.522 102.166 129.564 102.18C129.798 102.275 130.005 102.426 130.165 102.621C130.325 102.816 130.434 103.048 130.482 103.296C130.485 103.327 130.48 103.359 130.467 103.387C130.454 103.416 130.434 103.44 130.408 103.458C130.382 103.476 130.352 103.487 130.321 103.489C130.289 103.491 130.258 103.484 130.23 103.47V103.47Z" fill="#263238"/>
<path d="M125.7 101.208C125.661 101.198 125.627 101.174 125.604 101.142C125.592 101.124 125.585 101.103 125.582 101.082C125.578 101.06 125.58 101.039 125.585 101.018C125.591 100.997 125.601 100.977 125.614 100.961C125.628 100.944 125.645 100.93 125.664 100.92C125.881 100.77 126.13 100.671 126.391 100.633C126.652 100.594 126.919 100.617 127.17 100.698C127.19 100.706 127.208 100.717 127.222 100.733C127.237 100.748 127.249 100.766 127.256 100.785C127.263 100.805 127.267 100.826 127.265 100.848C127.264 100.869 127.258 100.889 127.248 100.908C127.228 100.948 127.195 100.979 127.154 100.995C127.113 101.012 127.068 101.013 127.026 100.998C126.826 100.934 126.613 100.917 126.405 100.948C126.197 100.98 125.999 101.058 125.826 101.178C125.789 101.203 125.744 101.214 125.7 101.208V101.208Z" fill="#263238"/>
<path opacity="0.5" d="M151.08 191.814L143.964 195.624L128.994 167.646L127.248 164.382L140.292 157.398L138 153.108L133.944 155.28L115.572 120.954L114.45 118.866L81.156 56.652L65.304 55.434L63.804 52.626L64.596 52.2L60.444 44.442L58.986 45.222L57.786 42.972L56.862 43.47L57.432 43.164L33.918 0.600006L56.286 43.776L55.932 43.968L57.138 46.212L55.686 46.992L59.838 54.75L60.63 54.324L62.13 57.132L54.354 70.998L107.136 169.62L113.886 166.008L103.086 171.792L105.378 176.088L118.428 169.098L135.15 200.34L139.56 197.982L128.04 204.15L129.42 206.736L152.46 194.4L151.08 191.814Z" fill="white"/>
<path d="M57.7873 42.9607L55.9359 43.9517L60.0898 51.7119L61.9413 50.7208L57.7873 42.9607Z" fill="#263238"/>
<path opacity="0.2" d="M81.156 56.652L63.174 55.272L54.354 70.998L107.136 169.62L133.944 155.28L81.156 56.652Z" fill="#00A2A5"/>
<path opacity="0.6" d="M81.156 56.652L63.174 55.272L54.354 70.998L85.998 130.122L112.8 115.782L81.156 56.652Z" fill="#00A2A5"/>
<path d="M63.174 55.272L54.354 70.998L81.156 56.652L63.174 55.272Z" fill="#00A2A5"/>
<path opacity="0.3" d="M138.007 153.093L103.095 171.782L105.391 176.072L140.304 157.383L138.007 153.093Z" fill="#00A2A5"/>
<path opacity="0.2" d="M127.254 164.368L118.436 169.089L135.156 200.325L143.975 195.605L127.254 164.368Z" fill="#00A2A5"/>
<path opacity="0.1" d="M108.23 128.837L99.4124 133.557L116.133 164.793L124.951 160.073L108.23 128.837Z" fill="#00A2A5"/>
<path opacity="0.4" d="M112.246 115.791L85.4926 130.08L89.8946 138.322L116.648 124.034L112.246 115.791Z" fill="#00A2A5"/>
<path opacity="0.4" d="M113.89 118.87L87.1366 133.159L88.2477 135.239L115.001 120.95L113.89 118.87Z" fill="#00A2A5"/>
<path opacity="0.2" d="M127.256 164.368L118.438 169.088L120.186 172.352L129.004 167.632L127.256 164.368Z" fill="#00A2A5"/>
<path opacity="0.3" d="M151.084 191.797L128.042 204.131L129.426 206.718L152.469 194.383L151.084 191.797Z" fill="#00A2A5"/>
<path d="M68.4048 79.01L60.8245 83.0677L62.2998 85.8237L69.8801 81.766L68.4048 79.01Z" fill="#00A2A5"/>
<path d="M76.0789 93.3583L68.4986 97.416L69.9738 100.172L77.5541 96.1142L76.0789 93.3583Z" fill="#00A2A5"/>
<path d="M83.7561 107.695L76.1758 111.753L77.6511 114.509L85.2313 110.451L83.7561 107.695Z" fill="#00A2A5"/>
<path d="M91.4325 122.029L83.8523 126.087L85.3275 128.843L92.9078 124.785L91.4325 122.029Z" fill="#00A2A5"/>
<path d="M99.1098 136.372L91.5295 140.43L93.0047 143.186L100.585 139.128L99.1098 136.372Z" fill="#00A2A5"/>
<path d="M106.784 150.721L99.2035 154.778L100.679 157.534L108.259 153.477L106.784 150.721Z" fill="#00A2A5"/>
<path d="M62.3463 49.8915L59.1725 51.5905L63.3264 59.3506L66.5003 57.6516L62.3463 49.8915Z" fill="#00A2A5"/>
<path d="M60.4438 44.4393L55.683 46.9877L59.8369 54.7479L64.5977 52.1994L60.4438 44.4393Z" fill="#00A2A5"/>
<path d="M33.918 0.600006L56.286 43.776L57.432 43.164L33.918 0.600006Z" fill="#00A2A5"/>
<path d="M120.93 135.03L121.752 134.388C121.904 134.268 122.083 134.188 122.273 134.152C122.463 134.116 122.659 134.127 122.844 134.184L124.596 134.7C124.942 134.803 125.258 134.987 125.518 135.238C125.778 135.489 125.974 135.798 126.09 136.14L126.234 136.566C124.944 137.724 122.7 138.024 122.7 138.024L122.07 138.18C121.942 138.215 121.807 138.225 121.675 138.208C121.543 138.191 121.416 138.148 121.3 138.082C121.185 138.016 121.083 137.927 121.002 137.821C120.921 137.716 120.862 137.595 120.828 137.466L120.504 136.218C120.451 136 120.463 135.771 120.539 135.56C120.614 135.349 120.75 135.165 120.93 135.03Z" fill="#CE7A63"/>
<path d="M132.75 116.682C133.104 117.222 133.35 117.648 133.638 118.134C133.926 118.62 134.166 119.088 134.418 119.574C134.924 120.548 135.375 121.549 135.768 122.574C136.187 123.644 136.514 124.748 136.746 125.874C136.867 126.468 136.952 127.069 136.998 127.674C136.998 127.992 137.034 128.31 136.998 128.634V128.904C136.993 129.085 136.975 129.265 136.944 129.444C136.889 129.746 136.803 130.042 136.686 130.326C136.348 131.07 135.867 131.741 135.27 132.3C134.836 132.733 134.37 133.134 133.878 133.5C132.993 134.143 132.072 134.734 131.118 135.27C129.294 136.29 127.415 137.209 125.49 138.024L123.768 134.202C125.48 133.349 127.144 132.404 128.754 131.37C129.517 130.88 130.251 130.345 130.95 129.768C131.25 129.519 131.531 129.249 131.79 128.958C132.018 128.724 132.162 128.448 132.108 128.502C132.079 128.554 132.058 128.611 132.048 128.67C132.044 128.724 132.044 128.778 132.048 128.832C132.048 128.832 132.048 128.76 132.048 128.73C132.048 128.556 132.012 128.376 131.988 128.196C131.927 127.811 131.843 127.431 131.736 127.056C131.494 126.232 131.185 125.429 130.812 124.656C130.424 123.846 129.994 123.057 129.522 122.292C129.282 121.902 129.03 121.518 128.778 121.146C128.526 120.774 128.238 120.372 128.016 120.09L132.75 116.682Z" fill="#00A2A5"/>
<path d="M219.12 107.442C219.12 107.442 217.386 108.642 215.778 108.198C218.13 106.5 216.696 101.088 216.438 100.446C216.056 100.685 215.735 101.01 215.501 101.396C215.268 101.781 215.128 102.216 215.094 102.666C215.059 101.894 214.741 101.161 214.202 100.608C213.662 100.055 212.937 99.7197 212.166 99.666C210.833 99.4985 209.56 99.0138 208.454 98.2528C207.347 97.4917 206.439 96.4764 205.806 95.292C205.516 95.8676 205.344 96.4957 205.302 97.139C205.26 97.7822 205.348 98.4274 205.56 99.036C203.574 99.21 201.36 99.162 201.072 98.268C201.03 100.068 202.56 101.598 201.258 101.562C199.956 101.526 200.19 100.668 200.19 100.668C200.19 100.668 198.864 101.868 199.98 103.95C201.096 106.032 199.026 107.784 200.712 109.95C207.42 118.2 212.304 114 212.304 114C212.45 114.228 212.527 114.494 212.527 114.765C212.527 115.036 212.45 115.301 212.304 115.53C212.304 115.53 216.624 113.868 214.104 111.828C218.682 111.864 219.12 107.442 219.12 107.442Z" fill="#E0E0E0"/>
<path d="M168.042 193.944L173.316 195.48L171.372 201.66L166.962 200.388L168.042 193.944Z" fill="#7F3E3B"/>
<path opacity="0.2" d="M168.042 193.944L173.322 195.48L172.23 198.942L167.436 197.556L168.042 193.944Z" fill="black"/>
<path d="M182.82 171.6C187.584 164.274 193.698 156.936 193.224 148.602L178.452 144.534C178.452 144.534 172.842 160.524 171.486 168.084C170.07 175.944 167.328 196.074 167.328 196.074L173.214 198.282C173.214 198.282 180.93 180.336 182.82 171.6Z" fill="#263238"/>
<path d="M172.032 203.268L170.628 202.89L170.418 202.326L169.71 202.644L161.91 200.532C161.981 199.971 162.203 199.44 162.552 198.996C162.552 198.996 165.378 199.29 166.626 198.852C166.732 198.814 166.845 198.799 166.957 198.806C167.07 198.813 167.179 198.843 167.28 198.894C168.174 199.332 170.568 200.412 172.08 200.25C172.116 200.249 172.152 200.257 172.185 200.272C172.218 200.287 172.247 200.309 172.271 200.336C172.294 200.364 172.311 200.396 172.321 200.431C172.33 200.466 172.332 200.502 172.326 200.538C172.155 201.439 172.057 202.352 172.032 203.268V203.268Z" fill="#263238"/>
<path d="M190.728 199.014L196.212 199.344L196.128 205.824L191.55 205.56L190.728 199.014Z" fill="#7F3E3B"/>
<path opacity="0.2" d="M190.728 199.02L196.218 199.344L196.17 202.974L191.184 202.686L190.728 199.02Z" fill="black"/>
<path d="M198.858 176.274C200.742 168.156 205.908 156.378 204.222 151.956L187.8 147.096C187.8 147.096 186.15 167.166 186.564 175.032C186.996 183.21 190.626 201.54 190.626 201.54L196.56 201.852C196.56 201.852 199.41 186 198.858 176.274Z" fill="#263238"/>
<path d="M170.058 121.302L170.172 123.612C169.416 125.928 166.614 124.446 166.614 124.446L164.976 124.278C164.689 124.236 164.426 124.091 164.238 123.871C164.049 123.65 163.947 123.368 163.95 123.078L163.86 121.464C163.822 121.132 163.915 120.799 164.119 120.535C164.323 120.27 164.622 120.096 164.952 120.048L166.38 119.958C166.792 119.937 167.204 120.015 167.58 120.186L170.058 121.302Z" fill="#7F3E3B"/>
<path d="M197.034 123C195.942 123.792 194.844 124.536 193.746 125.298C192.648 126.06 191.526 126.786 190.416 127.53C188.19 129.018 185.91 130.416 183.582 131.838L182.652 132.408L181.854 132.474C180.884 132.556 179.907 132.491 178.956 132.282C178.222 132.13 177.498 131.93 176.79 131.682C175.537 131.223 174.316 130.68 173.136 130.056C172.008 129.456 170.928 128.814 169.866 128.16C168.804 127.506 167.82 126.756 166.8 126L169.8 121.014C170.784 121.434 171.864 121.902 172.902 122.304C173.94 122.706 174.984 123.126 176.016 123.468C176.998 123.812 178 124.099 179.016 124.326C179.435 124.424 179.86 124.492 180.288 124.53C180.488 124.561 180.693 124.548 180.888 124.494L179.16 125.13C181.254 123.624 183.324 121.998 185.442 120.438C187.56 118.878 189.642 117.27 191.772 115.734L197.034 123Z" fill="#00A2A5"/>
<g opacity="0.2">
<path opacity="0.2" d="M197.034 123C195.942 123.792 194.844 124.536 193.746 125.298C192.648 126.06 191.526 126.786 190.416 127.53C188.19 129.018 185.91 130.416 183.582 131.838L182.652 132.408L181.854 132.474C180.884 132.556 179.907 132.491 178.956 132.282C178.222 132.13 177.498 131.93 176.79 131.682C175.537 131.223 174.316 130.68 173.136 130.056C172.008 129.456 170.928 128.814 169.866 128.16C168.804 127.506 167.82 126.756 166.8 126L169.8 121.014C170.784 121.434 171.864 121.902 172.902 122.304C173.94 122.706 174.984 123.126 176.016 123.468C176.998 123.812 178 124.099 179.016 124.326C179.435 124.424 179.86 124.492 180.288 124.53C180.488 124.561 180.693 124.548 180.888 124.494L179.16 125.13C181.254 123.624 183.324 121.998 185.442 120.438C187.56 118.878 189.642 117.27 191.772 115.734L197.034 123Z" fill="white"/>
</g>
<path d="M196.422 114.234C201.453 115.1 206.373 116.521 211.092 118.47C211.732 118.753 212.308 119.164 212.784 119.678C213.261 120.191 213.627 120.796 213.862 121.456C214.097 122.115 214.195 122.816 214.15 123.515C214.104 124.214 213.917 124.896 213.6 125.52C208.2 136.434 205.524 150.648 204.672 152.862C204.672 152.862 180.612 153.702 177.444 145.122C179.778 130.578 188.04 120.222 191.682 115.968C192.256 115.295 192.993 114.782 193.824 114.478C194.655 114.174 195.549 114.09 196.422 114.234V114.234Z" fill="white"/>
<path d="M215.034 122.256C214.566 120.768 213.528 118.656 208.062 116.946C203.93 118.638 200.062 120.911 196.572 123.696C196.21 122.05 196.314 120.336 196.873 118.746C197.431 117.156 198.422 115.754 199.734 114.696C196.62 113.634 194.244 113.838 193.326 114.096C192.408 114.354 186.33 119.796 181.542 130.296C176.754 140.796 171 161.538 169.8 166.95C178.338 174.714 196.632 176.34 201.48 174.12C204.072 165.762 205.554 152.334 206.928 146.904C208.302 141.474 215.646 125.07 215.034 122.256Z" fill="#00A2A5"/>
<path opacity="0.3" d="M215.034 122.256C214.566 120.768 213.528 118.656 208.062 116.946C203.93 118.638 200.062 120.911 196.572 123.696C196.21 122.05 196.314 120.336 196.873 118.746C197.431 117.156 198.422 115.754 199.734 114.696C196.62 113.634 194.244 113.838 193.326 114.096C192.408 114.354 186.33 119.796 181.542 130.296C176.754 140.796 171 161.538 169.8 166.95C178.338 174.714 196.632 176.34 201.48 174.12C204.072 165.762 205.554 152.334 206.928 146.904C208.302 141.474 215.646 125.07 215.034 122.256Z" fill="white"/>
<path d="M198.51 115.716C199 115.179 199.658 114.826 200.376 114.714C200.792 114.16 201.004 113.48 200.976 112.788L208.866 112.446C207.63 114.69 206.652 116.46 207.228 117.846C205.566 118.326 202.524 119.184 199.698 118.326C196.872 117.468 197.772 116.592 198.51 115.716Z" fill="#7F3E3B"/>
<path opacity="0.2" d="M200.952 113.028L206.49 114.186C204.288 115.548 201.522 115.53 200.544 114.468C200.799 114.03 200.94 113.535 200.952 113.028V113.028Z" fill="black"/>
<path d="M199.506 118.296L200.946 117.636L202.314 118.836C202.314 118.836 201.048 119.532 199.506 118.296Z" fill="#E0E0E0"/>
<path d="M211.26 109.134C209.496 112.278 208.23 114.378 205.692 114.84C200.64 115.758 199.248 112.902 200.04 109.284C200.748 106.026 203.514 101.43 207.306 101.7C208.146 101.76 208.956 102.031 209.662 102.49C210.368 102.949 210.945 103.579 211.341 104.323C211.736 105.066 211.936 105.897 211.922 106.739C211.908 107.58 211.68 108.404 211.26 109.134V109.134Z" fill="#7F3E3B"/>
<path opacity="0.2" d="M207.06 110.118C205.194 110.448 202.44 109.302 201.282 108.69C200.79 108.432 200.472 108.396 200.238 108.528C200.162 108.788 200.096 109.04 200.04 109.284C199.248 112.884 200.64 115.758 205.692 114.84C206.406 114.691 207.084 114.403 207.687 113.991C208.289 113.579 208.804 113.052 209.202 112.44C209.377 112.091 209.521 111.728 209.634 111.354C209.402 110.893 209.023 110.521 208.557 110.298C208.092 110.074 207.565 110.011 207.06 110.118V110.118Z" fill="#263238"/>
<path d="M202.254 110.364C202.073 110.259 201.901 110.141 201.738 110.01C201.728 110 201.719 109.989 201.714 109.976C201.708 109.963 201.705 109.949 201.705 109.935C201.705 109.921 201.708 109.907 201.714 109.894C201.719 109.881 201.728 109.87 201.738 109.86C201.749 109.849 201.761 109.841 201.775 109.835C201.789 109.829 201.804 109.826 201.819 109.826C201.834 109.826 201.849 109.829 201.863 109.835C201.877 109.841 201.889 109.849 201.9 109.86C202.266 110.161 202.694 110.378 203.154 110.493C203.614 110.608 204.093 110.619 204.558 110.526C204.587 110.517 204.618 110.519 204.645 110.532C204.672 110.546 204.692 110.569 204.702 110.598C204.707 110.627 204.702 110.656 204.686 110.681C204.671 110.705 204.646 110.723 204.618 110.73C203.812 110.9 202.971 110.77 202.254 110.364V110.364Z" fill="#263238"/>
<path d="M210.312 111.366C209.111 111.367 207.952 110.922 207.06 110.118C207.06 110.118 209.46 109.86 210.492 108.69C210.131 108.694 209.777 108.592 209.472 108.398C209.168 108.205 208.926 107.927 208.776 107.598C209.19 107.613 209.603 107.545 209.989 107.396C210.376 107.248 210.729 107.023 211.026 106.734C209.226 105.102 208.5 104.034 208.404 103.068C206.496 103.434 204.006 102.75 203.448 102.036C205.278 100.314 208.128 100.152 210.078 100.914C212.028 101.676 216 107.4 210.312 111.366Z" fill="#E0E0E0"/>
<path opacity="0.2" d="M206.7 107.706C207.139 107.71 207.56 107.887 207.87 108.198C207.451 108.113 207.054 107.946 206.7 107.706V107.706Z" fill="black"/>
<path opacity="0.2" d="M206.604 108C206.798 108.044 206.979 108.13 207.137 108.251C207.294 108.373 207.423 108.526 207.516 108.702C207.165 108.536 206.855 108.296 206.604 108V108Z" fill="black"/>
<path opacity="0.2" d="M202.2 105.6C202.2 105.6 202.044 105.168 201.774 105.27C201.867 105.431 202.02 105.55 202.2 105.6Z" fill="black"/>
<path opacity="0.2" d="M202.068 105.84C202.068 105.84 201.948 105.462 201.702 105.684C201.738 105.746 201.794 105.794 201.859 105.822C201.925 105.85 201.998 105.856 202.068 105.84V105.84Z" fill="black"/>
<path opacity="0.2" d="M204.186 103.38C205.236 103.564 206.255 103.891 207.216 104.352C205.506 103.89 204.186 103.38 204.186 103.38Z" fill="black"/>
<path opacity="0.2" d="M203.64 103.668C203.64 103.668 205.95 104.436 206.922 105.312C205.786 104.852 204.689 104.302 203.64 103.668V103.668Z" fill="black"/>
<path d="M211.26 113.064C210.897 113.327 210.485 113.516 210.048 113.619C209.611 113.722 209.159 113.737 208.716 113.664C207.516 113.46 207.444 112.272 208.2 111.42C208.956 110.568 210.306 109.83 211.29 110.478C211.504 110.62 211.679 110.814 211.799 111.041C211.919 111.269 211.98 111.522 211.977 111.779C211.974 112.036 211.907 112.288 211.782 112.513C211.656 112.737 211.477 112.927 211.26 113.064V113.064Z" fill="#7F3E3B"/>
<path d="M205.758 107.46C205.632 107.724 205.392 107.868 205.218 107.784C205.044 107.7 205.008 107.418 205.134 107.184C205.26 106.95 205.506 106.776 205.68 106.86C205.854 106.944 205.89 107.196 205.758 107.46Z" fill="#263238"/>
<path d="M202.944 106.146C202.812 106.41 202.572 106.554 202.398 106.47C202.224 106.386 202.194 106.104 202.32 105.87C202.446 105.636 202.692 105.462 202.86 105.546C203.028 105.63 203.07 105.882 202.944 106.146Z" fill="#263238"/>
<path d="M203.736 106.734L202.68 108.966C202.172 108.855 201.723 108.56 201.42 108.138C202.053 107.472 202.853 106.987 203.736 106.734Z" fill="#630F0F"/>
<path d="M207.048 107.016C207.078 107.022 207.108 107.022 207.138 107.016C207.182 107.006 207.221 106.979 207.245 106.941C207.27 106.903 207.279 106.856 207.27 106.812C207.224 106.541 207.114 106.286 206.949 106.067C206.784 105.847 206.569 105.671 206.322 105.552C206.302 105.543 206.279 105.538 206.257 105.538C206.235 105.538 206.213 105.542 206.192 105.55C206.171 105.559 206.153 105.571 206.137 105.587C206.121 105.603 206.109 105.621 206.1 105.642C206.082 105.684 206.081 105.732 206.098 105.775C206.115 105.817 206.148 105.852 206.19 105.87V105.87C206.384 105.968 206.553 106.11 206.682 106.286C206.811 106.461 206.897 106.664 206.934 106.878C206.939 106.909 206.952 106.938 206.972 106.963C206.992 106.987 207.018 107.005 207.048 107.016V107.016Z" fill="#263238"/>
<path d="M201.81 104.61C201.835 104.623 201.863 104.63 201.891 104.63C201.919 104.63 201.947 104.623 201.972 104.61C202.152 104.49 202.359 104.416 202.574 104.393C202.789 104.37 203.007 104.399 203.208 104.478C203.249 104.497 203.296 104.498 203.339 104.482C203.382 104.467 203.416 104.435 203.436 104.394C203.453 104.352 203.454 104.306 203.438 104.264C203.423 104.222 203.392 104.187 203.352 104.166C203.1 104.061 202.826 104.019 202.554 104.044C202.282 104.069 202.021 104.161 201.792 104.31C201.772 104.322 201.755 104.337 201.741 104.356C201.727 104.374 201.717 104.395 201.712 104.417C201.706 104.44 201.705 104.463 201.709 104.486C201.712 104.509 201.72 104.53 201.732 104.55C201.753 104.576 201.779 104.597 201.81 104.61V104.61Z" fill="#263238"/>
<path opacity="0.5" d="M209.028 126.732C208.866 128.922 209.694 134.694 210.702 136.266C211.164 135.066 211.626 133.866 212.064 132.666L209.028 126.732Z" fill="#00A2A5"/>
<path d="M57.522 65.658C57.4501 65.6528 57.3823 65.6224 57.3307 65.5722C57.279 65.5219 57.2467 65.455 57.2396 65.3833C57.2324 65.3115 57.2508 65.2396 57.2915 65.1801C57.3322 65.1206 57.3925 65.0774 57.462 65.058L83.088 60.078C83.1402 60.0688 83.1939 60.0727 83.2442 60.0894C83.2945 60.1062 83.3398 60.1353 83.376 60.174C83.4094 60.2143 83.4319 60.2625 83.4413 60.314C83.4508 60.3655 83.4469 60.4185 83.43 60.468L82.086 64.494C82.0656 64.5517 82.0285 64.602 81.9793 64.6384C81.9301 64.6747 81.8711 64.6955 81.81 64.698L57.534 65.652L57.522 65.658ZM82.722 60.768L61.452 64.902L81.6 64.11L82.722 60.768Z" fill="#263238"/>
<path d="M57.192 76.602C57.1348 76.6001 57.079 76.5835 57.03 76.554C56.9633 76.511 56.9163 76.4432 56.8994 76.3656C56.8826 76.288 56.8971 76.2069 56.94 76.14L69.924 55.65C69.9448 55.6165 69.9721 55.5874 70.0042 55.5644C70.0363 55.5414 70.0726 55.525 70.1111 55.5161C70.1495 55.5071 70.1894 55.5059 70.2283 55.5124C70.2672 55.5189 70.3045 55.5331 70.338 55.554C70.3722 55.5743 70.4019 55.6012 70.4253 55.6333C70.4488 55.6653 70.4655 55.7018 70.4745 55.7405C70.4834 55.7792 70.4845 55.8193 70.4775 55.8584C70.4706 55.8975 70.4558 55.9348 70.434 55.968L57.444 76.464C57.4178 76.5071 57.3807 76.5425 57.3364 76.5667C57.2922 76.5909 57.2424 76.6031 57.192 76.602V76.602Z" fill="#263238"/>
<path d="M55.83 74.052C55.7854 74.0525 55.7413 74.0431 55.7008 74.0244C55.6603 74.0057 55.6245 73.9783 55.596 73.944C55.5459 73.8816 55.5223 73.8021 55.5301 73.7224C55.538 73.6428 55.5767 73.5694 55.638 73.518L77.238 56.118C77.2687 56.0932 77.304 56.0747 77.3419 56.0635C77.3798 56.0523 77.4195 56.0487 77.4588 56.0529C77.4981 56.0571 77.5362 56.0689 77.5708 56.0878C77.6055 56.1067 77.6362 56.1323 77.661 56.163C77.6858 56.1937 77.7043 56.229 77.7155 56.2669C77.7267 56.3048 77.7303 56.3445 77.7261 56.3838C77.7219 56.4231 77.71 56.4612 77.6911 56.4959C77.6723 56.5306 77.6467 56.5612 77.616 56.586L56.016 73.986C55.9645 74.0307 55.8981 74.0543 55.83 74.052Z" fill="#263238"/>
<path d="M205.152 162.564C205.072 162.564 204.996 162.532 204.94 162.476C204.884 162.42 204.852 162.344 204.852 162.264V152.886C204.852 148.686 203.112 147.066 203.094 147.054L81.63 64.65C81.5971 64.6277 81.5689 64.5991 81.5471 64.5659C81.5254 64.5326 81.5104 64.4954 81.5032 64.4563C81.4959 64.4173 81.4965 64.3771 81.5049 64.3383C81.5132 64.2994 81.5293 64.2626 81.552 64.23C81.5737 64.1973 81.6018 64.1693 81.6345 64.1476C81.6672 64.1259 81.7039 64.1109 81.7425 64.1037C81.7811 64.0964 81.8208 64.0969 81.8592 64.1052C81.8975 64.1135 81.9339 64.1294 81.966 64.152L203.466 146.58C203.574 146.676 205.452 148.41 205.452 152.886V162.264C205.452 162.344 205.42 162.42 205.364 162.476C205.308 162.532 205.232 162.564 205.152 162.564Z" fill="#263238"/>
<path d="M205.086 143.34L206.706 144.99C207.69 147.216 204.612 147.99 204.612 147.99L203.28 148.962C203.034 149.115 202.741 149.177 202.454 149.137C202.166 149.096 201.902 148.956 201.708 148.74L200.562 147.6C200.308 147.378 200.151 147.064 200.126 146.727C200.102 146.39 200.211 146.057 200.43 145.8L201.438 144.78C201.734 144.485 202.096 144.265 202.494 144.138L205.086 143.34Z" fill="#7F3E3B"/>
<path d="M214.578 121.248C214.806 121.632 214.962 121.908 215.142 122.226L215.634 123.138C215.958 123.738 216.264 124.338 216.564 124.98C217.164 126.222 217.68 127.5 218.166 128.808C218.655 130.139 219.066 131.497 219.396 132.876C219.736 134.336 219.959 135.821 220.062 137.316L220.116 138.072L219.966 138.612C219.667 139.714 219.13 140.738 218.394 141.612C217.864 142.241 217.271 142.814 216.624 143.322C215.547 144.165 214.394 144.906 213.18 145.536C212.04 146.136 210.906 146.634 209.766 147.09C208.626 147.546 207.51 147.924 206.262 148.29L204.048 142.344C204.924 141.912 205.914 141.378 206.814 140.862C207.714 140.346 208.614 139.794 209.442 139.224C210.206 138.718 210.921 138.141 211.578 137.502C211.808 137.284 212.009 137.038 212.178 136.77C212.286 136.584 212.256 136.494 212.178 136.728L212.082 138.024C211.922 137.019 211.685 136.029 211.374 135.06C211.032 134.046 210.642 133.02 210.174 131.994C209.706 130.968 209.208 129.948 208.674 128.946C208.404 128.442 208.128 127.944 207.84 127.452L207.408 126.732C207.27 126.504 207.102 126.24 207 126.09L214.578 121.248Z" fill="#00A2A5"/>
<g opacity="0.3">
<path opacity="0.3" d="M214.578 121.248C214.806 121.632 214.962 121.908 215.142 122.226L215.634 123.138C215.958 123.738 216.264 124.338 216.564 124.98C217.164 126.222 217.68 127.5 218.166 128.808C218.655 130.139 219.066 131.497 219.396 132.876C219.736 134.336 219.959 135.821 220.062 137.316L220.116 138.072L219.966 138.612C219.667 139.714 219.13 140.738 218.394 141.612C217.864 142.241 217.271 142.814 216.624 143.322C215.547 144.165 214.394 144.906 213.18 145.536C212.04 146.136 210.906 146.634 209.766 147.09C208.626 147.546 207.51 147.924 206.262 148.29L204.048 142.344C204.924 141.912 205.914 141.378 206.814 140.862C207.714 140.346 208.614 139.794 209.442 139.224C210.206 138.718 210.921 138.141 211.578 137.502C211.808 137.284 212.009 137.038 212.178 136.77C212.286 136.584 212.256 136.494 212.178 136.728L212.082 138.024C211.922 137.019 211.685 136.029 211.374 135.06C211.032 134.046 210.642 133.02 210.174 131.994C209.706 130.968 209.208 129.948 208.674 128.946C208.404 128.442 208.128 127.944 207.84 127.452L207.408 126.732C207.27 126.504 207.102 126.24 207 126.09L214.578 121.248Z" fill="white"/>
</g>
<path d="M207.132 116.172C207.132 116.172 204.036 118.32 200.946 117.636C201.951 118.566 202.731 119.713 203.226 120.99C203.226 120.99 207.114 119.79 208.404 117.606C208.416 116.664 207.132 116.172 207.132 116.172Z" fill="white"/>
<path opacity="0.3" d="M180.918 171.522C180.894 171.518 180.871 171.51 180.851 171.497C180.83 171.485 180.813 171.468 180.799 171.449C180.785 171.429 180.775 171.407 180.769 171.383C180.764 171.36 180.764 171.336 180.768 171.312C184.632 146.712 196.098 124.236 196.212 124.008C196.235 123.966 196.273 123.934 196.319 123.919C196.365 123.905 196.415 123.909 196.458 123.93C196.499 123.954 196.53 123.992 196.544 124.038C196.559 124.083 196.556 124.133 196.536 124.176C196.416 124.398 184.974 146.796 181.122 171.372C181.113 171.418 181.087 171.459 181.049 171.487C181.012 171.515 180.965 171.527 180.918 171.522V171.522Z" fill="#00A2A5"/>
<path d="M199.506 118.296L198.492 116.736L196.656 116.778C196.921 117.29 197.336 117.71 197.845 117.981C198.354 118.252 198.933 118.362 199.506 118.296V118.296Z" fill="#E0E0E0"/>
<path d="M200.4 114.714C200.4 114.714 198.84 115.764 198.516 116.736C197.427 116.894 196.357 117.166 195.324 117.546C196.143 116.161 197.431 115.114 198.954 114.594C199.437 114.488 199.941 114.53 200.4 114.714Z" fill="white"/>
<path d="M196.968 207.546H195.768L195.444 207.06L194.814 207.552H187.614C187.567 206.985 187.673 206.415 187.92 205.902C187.92 205.902 190.08 205.71 190.92 204.63C190.95 204.59 190.99 204.559 191.037 204.541C191.084 204.523 191.135 204.518 191.184 204.528C191.904 204.678 194.754 205.218 196.326 204.654C196.364 204.64 196.406 204.635 196.446 204.64C196.487 204.644 196.526 204.659 196.56 204.682C196.594 204.705 196.622 204.735 196.642 204.771C196.662 204.807 196.673 204.847 196.674 204.888C196.706 205.78 196.804 206.669 196.968 207.546Z" fill="#263238"/>
<path d="M59.706 91.128L61.92 92.436C64.578 92.898 64.578 89.376 64.578 89.376L65.268 87.684C65.368 87.377 65.3567 87.0445 65.236 86.745C65.1153 86.4454 64.893 86.198 64.608 86.046L63.066 85.122C62.7627 84.9102 62.3882 84.8261 62.0234 84.8878C61.6587 84.9495 61.3327 85.1522 61.116 85.452L60.282 86.814C60.0403 87.2098 59.9001 87.6591 59.874 88.122L59.706 91.128Z" fill="#FFB573"/>
<path d="M32.4 104.4L41.25 101.046L45.654 99.366C47.112 98.808 48.558 98.238 49.95 97.65L49.524 97.884C50.3366 97.4297 51.0988 96.8907 51.798 96.276C52.626 95.574 53.472 94.794 54.306 93.972C55.14 93.15 55.98 92.298 56.79 91.41C57.6 90.522 58.446 89.61 59.226 88.77L64.578 92.406C63.936 93.606 63.282 94.716 62.58 95.844C61.878 96.972 61.134 98.052 60.348 99.138C59.5333 100.254 58.6622 101.327 57.738 102.354C56.6853 103.539 55.4949 104.595 54.192 105.498L54.126 105.54L53.766 105.726C52.272 106.5 50.802 107.214 49.332 107.916C47.862 108.618 46.392 109.296 44.91 109.944C43.428 110.592 41.964 111.246 40.476 111.87C38.988 112.494 37.512 113.112 35.994 113.7L32.4 104.4Z" fill="#00A2A5"/>
<g opacity="0.6">
<path opacity="0.6" d="M32.4 104.4L41.25 101.046L45.654 99.366C47.112 98.808 48.558 98.238 49.95 97.65L49.524 97.884C50.3366 97.4297 51.0988 96.8907 51.798 96.276C52.626 95.574 53.472 94.794 54.306 93.972C55.14 93.15 55.98 92.298 56.79 91.41C57.6 90.522 58.446 89.61 59.226 88.77L64.578 92.406C63.936 93.606 63.282 94.716 62.58 95.844C61.878 96.972 61.134 98.052 60.348 99.138C59.5333 100.254 58.6622 101.327 57.738 102.354C56.6853 103.539 55.4949 104.595 54.192 105.498L54.126 105.54L53.766 105.726C52.272 106.5 50.802 107.214 49.332 107.916C47.862 108.618 46.392 109.296 44.91 109.944C43.428 110.592 41.964 111.246 40.476 111.87C38.988 112.494 37.512 113.112 35.994 113.7L32.4 104.4Z" fill="white"/>
</g>
<path d="M46.44 105.312C46.1325 104.566 45.5831 103.945 44.88 103.548C44.6707 102.812 44.7215 102.025 45.024 101.322L36.942 97.92C37.362 100.728 37.692 102.948 36.552 104.196C38.094 105.342 40.932 107.406 44.208 107.604C47.484 107.802 46.866 106.518 46.44 105.312Z" fill="#FFB573"/>
<path d="M45.834 92.946L46.38 95.628C46.957 95.6441 47.5194 95.4452 47.958 95.07C47.4529 94.1847 46.7194 93.4512 45.834 92.946V92.946Z" fill="#ED893E"/>
<path d="M45.714 92.598C45.81 92.91 46.056 93.108 46.26 93.042C46.464 92.976 46.542 92.664 46.446 92.358C46.35 92.052 46.098 91.848 45.894 91.92C45.69 91.992 45.6 92.292 45.714 92.598Z" fill="#263238"/>
<path d="M45.504 90.036C45.5041 90.067 45.4965 90.0974 45.4818 90.1247C45.4671 90.1519 45.4459 90.1751 45.42 90.192C45.2185 90.3234 45.0508 90.5006 44.9309 90.7092C44.811 90.9177 44.7421 91.1517 44.73 91.392C44.7308 91.4172 44.7266 91.4423 44.7177 91.4659C44.7088 91.4895 44.6953 91.5112 44.6781 91.5295C44.6608 91.5479 44.6401 91.5627 44.6171 91.5731C44.5941 91.5835 44.5692 91.5892 44.544 91.59C44.4931 91.59 44.4443 91.5698 44.4083 91.5338C44.3723 91.4978 44.352 91.4489 44.352 91.398C44.3614 91.0959 44.4438 90.8006 44.5922 90.5373C44.7406 90.274 44.9505 90.0505 45.204 89.886C45.2243 89.8713 45.2474 89.8609 45.2718 89.8554C45.2963 89.8498 45.3216 89.8493 45.3462 89.8538C45.3709 89.8582 45.3944 89.8677 45.4153 89.8815C45.4363 89.8953 45.4542 89.9131 45.468 89.934C45.4909 89.9631 45.5036 89.999 45.504 90.036V90.036Z" fill="#263238"/>
<path d="M34.866 94.8961C36.33 98.6281 37.404 101.124 40.134 102.018C45.534 103.818 47.514 100.872 47.196 96.7681C46.902 93.0781 44.562 87.6001 40.35 87.3241C39.4179 87.2624 38.4853 87.4383 37.6396 87.8353C36.794 88.2324 36.0629 88.8375 35.515 89.5942C34.967 90.3508 34.62 91.2341 34.5065 92.1614C34.393 93.0887 34.5167 94.0296 34.866 94.8961Z" fill="#FFB573"/>
<path d="M44.148 94.482C44.5853 94.3929 44.9814 94.1632 45.276 93.828C45.276 93.828 44.802 91.602 43.578 91.2C43.524 89.778 42.978 88.626 41.448 88.524C39.918 88.422 35.202 92.25 35.154 90.174C33.624 90.552 32.952 93.876 33.726 96.3C34.0204 97.1656 34.5053 97.9541 35.1449 98.6073C35.7846 99.2604 36.5628 99.7617 37.422 100.074C37.548 99.15 41.55 99.3 42.222 99.6C42.6 97.548 44.148 94.482 44.148 94.482Z" fill="#263238"/>
<path d="M41.034 89.04C40.9923 89.0407 40.951 89.0325 40.9127 89.0159C40.8744 88.9994 40.8401 88.9749 40.812 88.944C40.4401 88.5915 39.9972 88.3224 39.513 88.1548C39.0287 87.9872 38.5143 87.9248 38.004 87.972C37.9244 87.9784 37.8456 87.9529 37.7848 87.9011C37.7241 87.8494 37.6864 87.7756 37.68 87.696C37.6736 87.6165 37.6991 87.5376 37.7509 87.4769C37.8027 87.4161 37.8764 87.3784 37.956 87.372C38.5574 87.3174 39.1635 87.3931 39.733 87.594C40.3025 87.7948 40.822 88.1162 41.256 88.536C41.3114 88.5931 41.3423 88.6695 41.3423 88.749C41.3423 88.8285 41.3114 88.9049 41.256 88.962C41.2262 88.9893 41.1911 89.0103 41.153 89.0237C41.1148 89.0371 41.0744 89.0426 41.034 89.04Z" fill="#263238"/>
<path d="M39.6 90.096C39.5438 90.0961 39.4886 90.0804 39.4409 90.0507C39.3932 90.021 39.3547 89.9785 39.33 89.928C39.33 89.874 38.658 88.62 36.39 88.854C36.311 88.8593 36.233 88.8343 36.1717 88.7842C36.1104 88.734 36.0705 88.6625 36.06 88.584C36.0516 88.5053 36.0746 88.4265 36.124 88.3646C36.1735 88.3028 36.2454 88.2631 36.324 88.254C39.036 87.978 39.84 89.598 39.876 89.67C39.9089 89.7417 39.9122 89.8234 39.8852 89.8975C39.8583 89.9716 39.8032 90.0322 39.732 90.066C39.6916 90.0879 39.6459 90.0982 39.6 90.096V90.096Z" fill="#263238"/>
<path d="M38.712 91.338C38.655 91.3383 38.5991 91.322 38.5511 91.2911C38.5032 91.2602 38.4653 91.2161 38.442 91.164C38.442 91.098 37.842 89.832 35.508 89.916C35.4682 89.9185 35.4283 89.9127 35.3908 89.899C35.3534 89.8852 35.3192 89.8639 35.2904 89.8362C35.2616 89.8086 35.2389 89.7753 35.2237 89.7384C35.2085 89.7015 35.2011 89.6619 35.202 89.622C35.2004 89.5829 35.2066 89.5439 35.2203 89.5072C35.234 89.4705 35.2548 89.4369 35.2817 89.4084C35.3085 89.3799 35.3407 89.3571 35.3765 89.3412C35.4123 89.3253 35.4509 89.3168 35.49 89.316C38.22 89.226 38.958 90.846 38.988 90.918C39.0189 90.9906 39.0205 91.0724 38.9926 91.1461C38.9646 91.2199 38.9092 91.2801 38.838 91.314C38.7981 91.3306 38.7552 91.3388 38.712 91.338V91.338Z" fill="#263238"/>
<path d="M41.862 95.238C42.0274 95.6426 42.2717 96.0102 42.5808 96.3193C42.8898 96.6283 43.2574 96.8727 43.662 97.038C44.742 97.47 45.414 96.534 45.228 95.454C45.06 94.476 44.298 93.054 43.164 93.108C42.9172 93.1177 42.6766 93.1881 42.4636 93.3131C42.2506 93.4381 42.0718 93.6138 41.9429 93.8245C41.8141 94.0353 41.7393 94.2745 41.7252 94.5211C41.7111 94.7677 41.7581 95.0139 41.862 95.238V95.238Z" fill="#FFB573"/>
<path d="M47.634 198.252L41.532 198.312L41.766 205.506L46.86 205.47L47.634 198.252Z" fill="#FFB573"/>
<path opacity="0.2" d="M47.634 198.258L41.532 198.312L41.658 202.344L47.202 202.296L47.634 198.258Z" fill="black"/>
<path d="M41.154 169.584C39.03 160.11 35.502 150.114 39.216 141.612L56.166 143.094C56.166 143.094 54.492 163.248 54.036 171.768C53.568 180.6 47.82 201.06 47.82 201.06H40.836C40.836 201.06 39.75 179.4 41.154 169.584Z" fill="#263238"/>
<path d="M40.8 207.738H42.408L42.798 207.198L43.464 207.744H52.464C52.5495 207.122 52.4666 206.488 52.224 205.908C52.224 205.908 49.098 205.404 47.892 204.576C47.7891 204.505 47.6729 204.454 47.5502 204.429C47.4276 204.403 47.301 204.402 47.178 204.426C46.092 204.636 43.212 205.104 41.658 204.498C41.6196 204.486 41.579 204.483 41.5393 204.489C41.4995 204.495 41.4616 204.51 41.4283 204.532C41.3949 204.555 41.367 204.584 41.3466 204.619C41.3261 204.653 41.3136 204.692 41.31 204.732C41.2159 205.745 41.0454 206.75 40.8 207.738V207.738Z" fill="#263238"/>
<path d="M23.148 191.526L17.244 189.978L15.096 196.854L20.022 198.156L23.148 191.526Z" fill="#FFB573"/>
<path opacity="0.2" d="M23.148 191.532L17.238 189.984L16.038 193.83L21.396 195.24L23.148 191.532Z" fill="black"/>
<path d="M22.092 167.856C22.434 158.61 23.01 144.786 26.478 140.856L45.444 142.14C45.444 142.14 38.358 161.808 35.628 170.118C32.784 178.764 22.38 194.244 22.38 194.244L16.008 192.528C16.008 192.528 18.672 178.134 22.092 167.856Z" fill="#263238"/>
<path d="M49.2 104.58C43.624 103.536 37.9493 103.113 32.28 103.32C31.5031 103.365 30.7436 103.568 30.0478 103.916C29.3521 104.265 28.7348 104.752 28.2337 105.347C27.7327 105.942 27.3585 106.634 27.1339 107.379C26.9094 108.124 26.8394 108.907 26.928 109.68C28.356 123.144 25.614 138.966 25.65 141.6C25.65 141.6 50.376 151.8 56.988 144.072C60.18 128.028 55.584 114.072 53.442 108.21C53.1052 107.292 52.5381 106.476 51.7953 105.841C51.0525 105.205 50.1588 104.771 49.2 104.58V104.58Z" fill="#00A2A5"/>
<path opacity="0.1" d="M41.16 169.584C40.98 170.814 40.842 172.236 40.74 173.784C45.0334 174.511 49.3815 174.867 53.736 174.846C53.88 173.718 53.988 172.686 54.036 171.768C54.102 170.502 54.198 168.972 54.312 167.298C49.7395 167.522 45.1577 167.48 40.59 167.172C40.8 168 40.98 168.78 41.16 169.584Z" fill="#263238"/>
<path opacity="0.1" d="M21.924 168.342C26.0085 170.17 30.2685 171.577 34.638 172.542C35.0136 171.743 35.3441 170.924 35.628 170.088C35.934 169.14 36.306 168.042 36.708 166.848C31.8386 166.417 26.9956 165.726 22.2 164.778C22.158 165.846 22.116 166.878 22.08 167.856L21.924 168.342Z" fill="#263238"/>
<path d="M20.79 165C24.39 168.6 39.348 173.052 51.042 171.246C51.728 169.741 52.2743 168.177 52.674 166.572C52.9514 167.984 53.0722 169.423 53.034 170.862C54.2309 170.596 55.4047 170.235 56.544 169.782C57.342 163.668 59.4 139.812 58.47 127.05C57.54 114.288 53.322 106.248 52.47 105.648C51.618 105.048 45.84 103.422 39.216 102.918C33.162 102.462 27.762 103.95 26.712 105.75C24.99 108.444 26.316 128.382 25.65 134.55C24.984 140.718 21.318 155.28 20.79 165Z" fill="#00A2A5"/>
<path opacity="0.6" d="M20.79 165C24.39 168.6 39.348 173.052 51.042 171.246C51.728 169.741 52.2743 168.177 52.674 166.572C52.9514 167.984 53.0722 169.423 53.034 170.862C54.2309 170.596 55.4047 170.235 56.544 169.782C57.342 163.668 59.4 139.812 58.47 127.05C57.54 114.288 53.322 106.248 52.47 105.648C51.618 105.048 45.84 103.422 39.216 102.918C33.162 102.462 27.762 103.95 26.712 105.75C24.99 108.444 26.316 128.382 25.65 134.55C24.984 140.718 21.318 155.28 20.79 165Z" fill="white"/>
<path d="M13.2 197.46L14.304 198.186L14.904 197.934L15.186 198.774L21.87 203.178C22.2594 202.678 22.5098 202.084 22.596 201.456C22.596 201.456 20.712 199.962 20.604 198.456C20.6 198.399 20.5806 198.345 20.5478 198.298C20.515 198.252 20.4701 198.215 20.418 198.192C19.662 197.898 16.686 196.65 15.576 195.192C15.5502 195.154 15.5154 195.122 15.4746 195.1C15.4338 195.079 15.3882 195.067 15.342 195.067C15.2958 195.067 15.2503 195.079 15.2095 195.1C15.1686 195.122 15.1338 195.154 15.108 195.192C14.5316 195.996 13.8937 196.754 13.2 197.46Z" fill="#263238"/>
<path d="M69.126 106.2L70.794 108.156C73.158 109.458 74.31 106.128 74.31 106.128L75.51 104.748C75.7043 104.491 75.8018 104.174 75.7853 103.853C75.7689 103.531 75.6395 103.226 75.42 102.99L74.262 101.61C74.0405 101.314 73.7129 101.116 73.3481 101.056C72.9834 100.997 72.6098 101.082 72.306 101.292L71.106 102.306C70.7465 102.6 70.466 102.98 70.29 103.41L69.126 106.2Z" fill="#FFB573"/>
<path d="M69.048 106.392C68.178 104.37 69.462 102.858 70.092 101.376C70.2 101.124 70.926 101.154 71.028 101.64C71.1159 101.931 71.1448 102.236 71.1128 102.538C71.0809 102.84 70.9888 103.132 70.842 103.398C71.3099 103.894 71.5759 104.546 71.5881 105.227C71.6003 105.909 71.3578 106.57 70.908 107.082C70.2247 107.086 69.5634 106.841 69.048 106.392V106.392Z" fill="#FFB573"/>
<path opacity="0.5" d="M55.884 113.106C55.182 112.59 54.492 112.104 53.82 111.654C51.816 112.308 50.748 113.85 51.678 114.84C52.788 116.04 54.81 117.15 57.15 117.87C56.76 116.112 56.328 114.516 55.884 113.106Z" fill="#00A2A5"/>
<path opacity="0.5" d="M38.232 134.532C38.232 134.532 30.756 133.932 28.578 132.63C31.2 134.766 34.8 135.048 38.232 134.532Z" fill="#00A2A5"/>
<path opacity="0.5" d="M37.386 135.402C37.386 135.402 31.884 135.744 30.186 135.036C32.298 136.308 34.95 136.134 37.386 135.402Z" fill="#00A2A5"/>
<path d="M50.742 104.964L52.062 105.45L53.472 105.942C54.42 106.266 55.374 106.596 56.334 106.89C58.254 107.49 60.186 108.03 62.112 108.486L60.072 108.63C60.7177 108.486 61.3455 108.27 61.944 107.988C62.7181 107.635 63.4713 107.239 64.2 106.8C64.968 106.368 65.73 105.87 66.498 105.372C66.882 105.12 67.272 104.862 67.65 104.604L68.76 103.842L73.374 108.378C73.002 108.858 72.69 109.254 72.336 109.668C71.982 110.082 71.646 110.484 71.28 110.868C70.548 111.66 69.786 112.422 68.958 113.166C68.1055 113.934 67.2036 114.646 66.258 115.296C65.169 116.046 63.9948 116.665 62.76 117.138L61.998 117.42L60.714 117.282C58.4211 117.049 56.1448 116.674 53.898 116.16C52.782 115.908 51.672 115.644 50.568 115.326L48.912 114.828C48.342 114.648 47.844 114.48 47.19 114.228L50.742 104.964Z" fill="#00A2A5"/>
<g opacity="0.6">
<path opacity="0.6" d="M50.742 104.964L52.062 105.45L53.472 105.942C54.42 106.266 55.374 106.596 56.334 106.89C58.254 107.49 60.186 108.03 62.112 108.486L60.072 108.63C60.7177 108.486 61.3455 108.27 61.944 107.988C62.7181 107.635 63.4713 107.239 64.2 106.8C64.968 106.368 65.73 105.87 66.498 105.372C66.882 105.12 67.272 104.862 67.65 104.604L68.76 103.842L73.374 108.378C73.002 108.858 72.69 109.254 72.336 109.668C71.982 110.082 71.646 110.484 71.28 110.868C70.548 111.66 69.786 112.422 68.958 113.166C68.1055 113.934 67.2036 114.646 66.258 115.296C65.169 116.046 63.9948 116.665 62.76 117.138L61.998 117.42L60.714 117.282C58.4211 117.049 56.1448 116.674 53.898 116.16C52.782 115.908 51.672 115.644 50.568 115.326L48.912 114.828C48.342 114.648 47.844 114.48 47.19 114.228L50.742 104.964Z" fill="white"/>
</g>
</svg>
